<svg id="Layer_1" xmlns="http://www.w3.org/2000/svg" viewBox="0 0 110.16 13.44">
                        <defs>
                            <style>.cls-1 {
                                    fill: #26aae1;
                                }

                                .cls-2 {
                                    fill: #0068ab;
                                }

                                .cls-3 {
                                    fill: #0f4d8d;
                                }</style>
                        </defs>
                        <g>
                            <path class="cls-3" d="M19.66,3.9c-3.86,0-7.47,0-7.79,0,.18,.08,3.14,1.48,6.76,3.19l-.5,1.56L0,0H20.92l-1.25,3.9Z"></path>
                            <polygon class="cls-2" points="34.12 7.18 32.19 13.13 13.46 4.23 27.85 4.24 34.12 7.18"></polygon>
                            <polygon class="cls-1" points="23.55 1.86 42.21 10.61 44.99 1.74 23.55 1.86"></polygon>
                        </g>
                        <g>
                            <path class="cls-1" d="M109.46,3.59c-.47-.79-1.1-1.37-1.9-1.74-.8-.37-2.02-.55-3.68-.56h-3.91l-.11,.32h.2c.46,0,.76,.06,.92,.19,.16,.12,.23,.3,.23,.53,0,.32-.09,.77-.26,1.33l-2.22,7.17c-.22,.74-.42,1.23-.6,1.48-.12,.17-.29,.3-.54,.4-.16,.07-.48,.11-.96,.12l-.12,.32h5.19c1.25,0,2.3-.12,3.14-.37,.84-.25,1.62-.64,2.34-1.17,.72-.53,1.26-1.02,1.61-1.46,.35-.44,.66-1.03,.94-1.76,.28-.73,.42-1.49,.43-2.26,0-.9-.22-1.75-.7-2.54Zm-1.9,5.64c-.45,.95-1.04,1.7-1.78,2.24-.52,.37-1.19,.65-2,.84-.81,.19-1.69,.28-2.64,.28-.35,0-.6-.03-.76-.08-.11-.03-.19-.09-.26-.18-.06-.09-.09-.18-.09-.27,0-.16,.1-.57,.31-1.23l2.72-8.88c.51-.02,.92-.03,1.24-.03,1.29,0,2.28,.34,2.95,1.01,.67,.67,1,1.69,.99,3.06,0,1.21-.24,2.29-.68,3.25Z"></path>
                            <path class="cls-1" d="M92.62,1.01c.83,0,1.57,.17,2.22,.51,.65,.34,1.16,.85,1.54,1.52,.38,.67,.57,1.36,.59,2.08,.03,1.27-.34,2.61-1.09,4.01-.75,1.4-1.75,2.47-2.99,3.2-1.24,.74-2.53,1.1-3.88,1.1-.97,0-1.78-.2-2.44-.61-.66-.41-1.15-.94-1.48-1.61-.33-.67-.49-1.31-.51-1.94-.02-1.11,.24-2.21,.78-3.29,.54-1.08,1.2-1.99,1.96-2.72,.77-.73,1.59-1.29,2.47-1.68,.88-.39,1.82-.59,2.82-.59Zm-.3,.56c-.62,0-1.22,.14-1.8,.43-.58,.29-1.16,.76-1.72,1.42-.57,.66-1.07,1.52-1.51,2.58-.54,1.31-.8,2.54-.77,3.71,.02,.83,.26,1.56,.72,2.2,.46,.64,1.16,.96,2.09,.96,.56,0,1.11-.13,1.64-.39,.53-.26,1.09-.71,1.66-1.35,.72-.8,1.31-1.82,1.79-3.06s.7-2.4,.68-3.47c-.02-.79-.26-1.5-.72-2.11-.46-.61-1.15-.92-2.05-.92Z"></path>
                            <path class="cls-1" d="M78.96,1.01c.83,0,1.57,.17,2.22,.51,.65,.34,1.16,.85,1.54,1.52,.38,.67,.57,1.36,.59,2.08,.03,1.27-.34,2.61-1.09,4.01-.75,1.4-1.75,2.47-2.99,3.2-1.24,.74-2.53,1.1-3.88,1.1-.97,0-1.78-.2-2.44-.61s-1.15-.94-1.48-1.61c-.33-.67-.49-1.31-.51-1.94-.02-1.11,.24-2.21,.78-3.29,.54-1.08,1.2-1.99,1.96-2.72,.77-.73,1.59-1.29,2.47-1.68,.88-.39,1.82-.59,2.82-.59Zm-.3,.56c-.62,0-1.22,.14-1.8,.43-.58,.29-1.16,.76-1.72,1.42-.57,.66-1.07,1.52-1.51,2.58-.54,1.31-.8,2.54-.77,3.71,.02,.83,.26,1.56,.72,2.2,.46,.64,1.16,.96,2.09,.96,.56,0,1.11-.13,1.64-.39,.53-.26,1.09-.71,1.66-1.35,.72-.8,1.31-1.82,1.79-3.06s.7-2.4,.68-3.47c-.02-.79-.26-1.5-.72-2.11-.46-.61-1.15-.92-2.05-.92Z"></path>
                            <path class="cls-1" d="M61.21,1.61l.13-.32h4.42c.74,.01,1.4,.12,1.98,.35,.58,.22,1.01,.53,1.29,.93,.28,.4,.42,.82,.41,1.26-.01,.68-.28,1.3-.8,1.85-.52,.55-1.37,.96-2.54,1.21,.74,.27,1.29,.63,1.64,1.07,.35,.44,.52,.93,.51,1.46,0,.59-.18,1.15-.5,1.69-.32,.54-.74,.95-1.24,1.25-.5,.3-1.1,.51-1.81,.65-.5,.1-1.28,.15-2.34,.14h-4.54l.12-.33c.48-.01,.8-.05,.97-.13,.24-.1,.42-.23,.53-.39,.15-.22,.35-.73,.61-1.52l2.33-7.18c.2-.61,.3-1.03,.3-1.28,0-.22-.08-.39-.24-.51-.17-.13-.48-.19-.95-.19-.1,0-.2,0-.29,0Zm-.11,10.77c.66,.08,1.17,.13,1.54,.13,.95,0,1.8-.27,2.54-.82,.74-.55,1.12-1.29,1.14-2.23,.01-.72-.21-1.28-.65-1.68-.45-.4-1.18-.61-2.19-.61-.19,0-.43,0-.71,.02l-1.66,5.19Zm1.89-5.84c.4,.01,.68,.02,.86,.02,1.27,0,2.21-.26,2.84-.79,.63-.53,.95-1.19,.96-1.98,0-.6-.17-1.07-.54-1.41-.37-.34-.97-.51-1.8-.51-.22,0-.5,.03-.84,.1l-1.47,4.56Z"></path>
                            <path class="cls-1" d="M56.42,1.11l-.9,9.93c-.05,.46-.07,.77-.07,.92,0,.24,.05,.41,.14,.54,.12,.17,.28,.3,.49,.39,.2,.09,.55,.13,1.03,.14l-.1,.32-5.03-.07,.1-.32h.22c.41,0,.74-.07,1-.23,.18-.11,.32-.29,.42-.55,.07-.18,.13-.61,.19-1.28l.14-1.51-3.65-.05-1.29,1.63c-.29,.37-.48,.63-.55,.79-.07,.16-.11,.31-.11,.45,0,.19,.08,.35,.25,.49,.16,.14,.43,.21,.81,.23l-.1,.32-3.77-.05,.1-.32c.46-.01,.87-.15,1.23-.42,.35-.27,.88-.84,1.57-1.73L56.09,1.11h.33Zm-1.84,2.91l-3.67,4.66,3.21,.04,.46-4.71Z"></path>
                        </g>
                    </svg>