<?xml version="1.0" encoding="UTF-8"?>
<svg version="1.1" xmlns="http://www.w3.org/2000/svg" width="512" height="512" class="driver-icon">
    <path
        d="M0 0 C1.04013748 -0.00101212 1.04013748 -0.00101212 2.10128784 -0.00204468 C23.79566467 0.03110868 44.84885881 2.91179673 65.875 8.25 C66.70628418 8.45963379 67.53756836 8.66926758 68.39404297 8.88525391 C80.52045752 12.0300358 91.83774048 16.56563702 103.20825195 21.81884766 C104.26230225 22.29112793 105.31635254 22.7634082 106.40234375 23.25 C107.80601196 23.8996875 107.80601196 23.8996875 109.23803711 24.5625 C112.56287297 25.4293399 113.88170736 24.839348 116.875 23.25 C117.98875 22.54875 119.1025 21.8475 120.25 21.125 C126.84454305 17.79011701 135.44157777 17.99004566 142.4453125 19.98046875 C149.62088197 23.32270168 154.30337703 29.34028326 157.875 36.25 C158.95387312 39.4667628 158.97886753 42.43415158 158.9375 45.8125 C158.92847656 46.76253906 158.91945313 47.71257813 158.91015625 48.69140625 C158.89275391 49.95791016 158.89275391 49.95791016 158.875 51.25 C158.875 52.24 158.875 53.23 158.875 54.25 C159.27589844 53.85167969 159.67679687 53.45335937 160.08984375 53.04296875 C165.77425429 47.74525281 171.5217178 45.23845105 179.3125 44.8125 C186.97782811 45.12018333 193.83931285 48.41928909 199.40625 53.60546875 C205.19546206 60.08753864 206.21308827 66.71109672 206.171875 75.12890625 C205.73661539 79.70485922 204.09330112 83.27665743 201.875 87.25 C201.545 87.91 201.215 88.57 200.875 89.25 C201.43832031 89.09015625 202.00164062 88.9303125 202.58203125 88.765625 C209.81303474 87.13957311 217.26671912 87.89227891 223.875 91.25 C230.91053846 95.97368301 235.15787869 101.93720711 236.875 110.25 C237.62845371 117.82800558 236.65816773 124.61830553 231.953125 130.7578125 C229.66553137 133.33727152 227.30689394 135.80637667 224.875 138.25 C224.09382813 139.04535156 223.31265625 139.84070313 222.5078125 140.66015625 C220.64508474 142.53945632 218.76907176 144.40237687 216.875 146.25 C217.69742187 146.14300781 218.51984375 146.03601563 219.3671875 145.92578125 C229.43102296 144.84502294 236.69220219 145.3295161 244.75 151.8125 C250.83180457 157.72207648 253.02297229 163.91717253 253.375 172.3125 C253.13963368 179.33727926 250.71565718 184.48901423 246.875 190.25 C247.38525287 198.30242811 249.01842529 206.25245546 250.4140625 214.19140625 C252.54311119 226.60026465 253.1153255 238.80749144 253.125 251.375 C253.12567474 252.16723969 253.12634949 252.95947937 253.12704468 253.77572632 C253.10821748 267.77559316 252.25360427 281.4312149 249.875 295.25 C249.64151855 296.63590332 249.64151855 296.63590332 249.40332031 298.04980469 C241.14335806 345.08707479 219.03175014 386.50774759 187.875 422.25 C187.43623535 422.75337891 186.9974707 423.25675781 186.54541016 423.77539062 C181.93266716 429.03429673 177.26322966 434.03585104 171.8984375 438.53125 C170.49574128 439.72272942 169.12749577 440.95550961 167.7890625 442.21875 C150.45190037 458.5500017 129.3670266 471.19359948 107.875 481.25 C106.95315918 481.68989258 106.95315918 481.68989258 106.01269531 482.13867188 C86.57835126 491.35792225 66.0010486 497.41430645 44.875 501.25 C43.6055957 501.49556641 43.6055957 501.49556641 42.31054688 501.74609375 C15.07548842 506.86721585 -15.950227 506.48731989 -43.125 501.25 C-44.02492676 501.08902832 -44.92485352 500.92805664 -45.85205078 500.76220703 C-91.91543934 492.42418104 -135.27754715 470.82950067 -169.4140625 438.7734375 C-171.66755176 436.67580917 -173.95840164 434.6694089 -176.3125 432.6875 C-181.01441065 428.58296325 -185.07587414 423.99059197 -189.125 419.25 C-189.61129883 418.6813623 -190.09759766 418.11272461 -190.59863281 417.52685547 C-203.25802419 402.62067879 -214.06921107 386.58356197 -223.125 369.25 C-223.51896973 368.50540527 -223.91293945 367.76081055 -224.31884766 366.99365234 C-235.99261045 344.65942603 -243.94107802 320.08499858 -248.125 295.25 C-248.28581055 294.31575195 -248.44662109 293.38150391 -248.61230469 292.41894531 C-253.62067131 261.96601093 -253.50489691 228.0368658 -245.578125 198.1171875 C-244.90387071 193.85078538 -245.04911371 189.79366294 -247.5625 186.1875 C-248.078125 185.548125 -248.59375 184.90875 -249.125 184.25 C-252.09049227 178.00685837 -252.23649069 170.34230661 -250.4375 163.71875 C-247.27492674 156.02315508 -242.66070185 150.35602127 -235 146.9609375 C-228.40429742 144.46006694 -221.96129124 145.03850535 -215.125 146.25 C-215.55844727 145.8375 -215.99189453 145.425 -216.43847656 145 C-218.42817401 143.09431436 -220.40149036 141.17243915 -222.375 139.25 C-223.05691406 138.60160156 -223.73882812 137.95320312 -224.44140625 137.28515625 C-230.85803831 130.99311899 -235.11577668 124.30258088 -235.4375 115.125 C-235.32243662 107.35182948 -232.0959432 100.37926375 -226.8359375 94.71875 C-219.80187938 88.68038047 -212.04291451 87.87541878 -203.125 88.25 C-200 88.75 -200 88.75 -198.125 89.25 C-198.47433594 88.71890625 -198.82367188 88.1878125 -199.18359375 87.640625 C-199.86615234 86.58101562 -199.86615234 86.58101562 -200.5625 85.5 C-201.24119141 84.45585937 -201.24119141 84.45585937 -201.93359375 83.390625 C-205.13935648 77.63076278 -204.91851795 70.37774932 -203.69921875 64.03515625 C-201.42166676 56.97893691 -196.51033474 51.20928213 -189.9375 47.8125 C-182.21890928 44.30690788 -174.29732434 44.23261653 -166.34375 47.1171875 C-162.37407477 49.1439583 -159.26520119 52.12691162 -156.125 55.25 C-156.36283203 54.15751953 -156.36283203 54.15751953 -156.60546875 53.04296875 C-158.13737959 44.80750824 -157.3816983 37.55912061 -153.125 30.25 C-149.22600256 25.26841759 -144.55293573 20.41871559 -138.125 19.25 C-128.35846739 18.26888713 -121.48015066 19.1533581 -113.125 24.25 C-109.61983407 25.41838864 -109.18936969 25.11056009 -105.9765625 23.625 C-105.14705078 23.25149414 -104.31753906 22.87798828 -103.46289062 22.49316406 C-102.56763672 22.08291992 -101.67238281 21.67267578 -100.75 21.25 C-68.76809989 7.11307314 -34.95784895 0.03099519 0 0 Z M-76.125 59.25 C-76.125 64.61312844 -71.10893718 67.86365842 -67.48242188 71.50341797 C-66.0083914 72.99152845 -64.56309014 74.5041425 -63.1171875 76.01953125 C-61.725 77.42525391 -61.725 77.42525391 -60.3046875 78.859375 C-59.45632324 79.72530273 -58.60795898 80.59123047 -57.73388672 81.48339844 C-55.21612462 83.57835603 -55.21612462 83.57835603 -51.99584961 83.03930664 C-51.04846924 82.77883545 -50.10108887 82.51836426 -49.125 82.25 C-39.34785492 81.50168651 -32.0108261 82.23276521 -24.3125 88.5625 C-17.7744248 96.59499238 -16.12962168 103.99174819 -17.125 114.25 C-20.72605965 126.82735954 -32.77727642 133.59623716 -42.72265625 140.953125 C-46.59159599 143.82804081 -50.38133588 146.79465641 -54.16381836 149.78198242 C-73.96655259 165.40439236 -73.96655259 165.40439236 -84.5625 165.375 C-85.95275391 165.37886719 -85.95275391 165.37886719 -87.37109375 165.3828125 C-90.125 165.25 -90.125 165.25 -92.6953125 164.6484375 C-95.56027855 164.17861992 -96.89405535 164.67707252 -99.5625 165.75 C-106.10926693 167.93885853 -112.37565749 167.05719802 -119.125 166.25 C-118.77566406 166.84425781 -118.42632812 167.43851562 -118.06640625 168.05078125 C-113.65534751 176.08565595 -111.91005597 183.39775966 -114.125 192.4375 C-116.46160597 199.08784006 -120.75347444 204.18050692 -126.875 207.6875 C-134.32020163 210.90704665 -142.12379104 211.01831201 -149.75390625 208.41796875 C-153.82784285 206.41120261 -156.96605009 203.47071709 -160.125 200.25 C-160.455 200.91 -160.785 201.57 -161.125 202.25 C-160.795 203.24 -160.465 204.23 -160.125 205.25 C-159.25661684 214.73103583 -160.99290601 220.94953325 -165.75 229 C-170.99767465 233.97148125 -177.68467206 236.89684274 -184.90625 237.31640625 C-191.78959698 237.11039058 -196.87259212 235.20420834 -202.49609375 231.2734375 C-204.08662438 230.07266494 -204.08662438 230.07266494 -206.125 230.25 C-208.13750521 247.60785741 -207.46264714 264.97244192 -205.125 282.25 C-204.95742187 283.4978125 -204.78984375 284.745625 -204.6171875 286.03125 C-204.05759118 291.69580668 -204.05759118 291.69580668 -201.125 296.25 C-149.45026521 278.26445279 -149.45026521 278.26445279 -97.87493896 259.99662781 C-92.88278427 258.21589427 -87.87967323 256.47467475 -82.85835266 254.77793884 C-79.97256027 253.8000201 -77.09392025 252.80217144 -74.21633911 251.80038452 C-72.32396092 251.15040358 -70.42173956 250.52929889 -68.51928711 249.90942383 C-65.5424695 248.86409404 -62.83286622 247.8676199 -60.125 246.25 C-58.277871 242.89890786 -58.277871 242.89890786 -58.125 239.25 C-53.56364561 223.27445073 -45.55271802 210.1223635 -31.375 200.875 C-16.10966555 192.56815396 0.93431844 189.93977596 17.875 194.25 C35.66786688 200.03831239 47.27788713 210.26937056 56.09765625 226.5 C57.72822334 229.87273193 58.88539678 232.4023485 58.83862305 236.21582031 C58.98335684 240.45239876 59.57043015 242.64867886 61.875 246.25 C69.14887618 251.02871389 78.20618679 253.07879527 86.4375 255.625 C88.91127751 256.43421511 91.38319533 257.24913626 93.85327148 258.06958008 C98.83912841 259.72067195 103.83193924 261.34714392 108.83203125 262.95458984 C117.60346743 265.79065795 126.27439404 268.88375833 134.9380188 272.03103638 C139.09823899 273.53978478 143.26630589 275.02653541 147.43359375 276.515625 C148.26052231 276.81163101 149.08745087 277.10763702 149.93943787 277.41261292 C160.95342568 281.35497064 171.97710437 285.27013534 183 289.1875 C184.00676788 289.54532562 185.01353577 289.90315125 186.05081177 290.27182007 C191.65872886 292.2649568 197.26679164 294.25768299 202.875 296.25 C205.32930885 292.56853673 205.77307508 289.09206219 206.4375 284.8125 C206.56680908 283.99628174 206.69611816 283.18006348 206.8293457 282.33911133 C209.47965755 265.17058452 209.87809883 247.52672737 207.875 230.25 C204.80799135 231.43124858 201.93544246 232.72179712 199.0625 234.3125 C192.47567666 237.59975576 186.46272745 237.74570704 179.3984375 236.09375 C172.88905854 233.91723939 168.27873078 230.5507255 164.875 224.5625 C162.62184606 220.03272176 161.73734817 216.44838471 161.75 211.375 C161.74742187 210.34632813 161.74484375 209.31765625 161.7421875 208.2578125 C161.86504939 205.475352 162.24555764 202.95760126 162.875 200.25 C162.36710937 200.64832031 161.85921875 201.04664063 161.3359375 201.45703125 C153.73128608 207.31004948 147.65890746 210.43636014 137.875 210.25 C130.35061284 209.20833226 124.81507647 206.00011211 119.875 200.25 C115.96315756 194.17247088 114.40797604 188.48887145 114.875 181.25 C116.12928562 175.71384276 117.82196826 171.05617321 120.875 166.25 C119.56789063 166.41048828 119.56789063 166.41048828 118.234375 166.57421875 C110.68083835 167.33447731 104.65169553 167.14889502 97.3984375 164.84375 C94.67283797 164.20243246 93.49442018 164.42750206 90.875 165.25 C80.77186819 166.33121235 73.54626591 163.53438157 65.69165039 157.33642578 C63.08746967 155.22452555 60.5113033 153.07971293 57.93408203 150.93505859 C54.44070151 148.07623569 50.84474636 145.35443436 47.25 142.625 C46.53924316 142.08077393 45.82848633 141.53654785 45.09619141 140.97583008 C41.79783655 138.45295645 38.48622995 135.95664851 35.12109375 133.5234375 C27.84843363 128.21401146 20.56474122 122.60454674 18.875 113.25 C18.18576806 105.44247097 18.62859585 98.97232057 22.875 92.25 C26.70110646 87.71908446 31.21019927 84.13826691 36.875 82.25 C39.14419248 82.15415833 41.41628959 82.12016249 43.6875 82.125 C44.89019531 82.12242188 46.09289062 82.11984375 47.33203125 82.1171875 C50.875 82.25 50.875 82.25 53.7590332 83.05297852 C56.99967619 83.58481316 56.99967619 83.58481316 59.57568359 81.34399414 C60.91107178 79.95361938 60.91107178 79.95361938 62.2734375 78.53515625 C62.7532608 78.04542831 63.23308411 77.55570038 63.72744751 77.0511322 C65.25220489 75.48727169 66.75081227 73.90085071 68.25 72.3125 C69.28091731 71.24646353 70.31345316 70.18198973 71.34765625 69.11914062 C73.87578457 66.51394628 76.38101871 63.88795002 78.875 61.25 C77.22383995 57.9476799 73.88324428 57.6454688 70.52172852 56.48266602 C69.48330811 56.13776123 68.4448877 55.79285645 67.375 55.4375 C66.31015381 55.08292725 65.24530762 54.72835449 64.14819336 54.36303711 C47.18863606 48.90904979 29.28909173 45.1563753 11.421875 45.046875 C10.26091057 45.03628555 10.26091057 45.03628555 9.07649231 45.02548218 C-20.7540441 44.81521993 -48.12673129 48.28360706 -76.125 59.25 Z M37.45703125 301.328125 C34.44504199 303.57002926 31.13504362 305.38711793 27.875 307.25 C27.875 357.08 27.875 406.91 27.875 458.25 C35.17392788 457.5864611 41.78455147 456.84354772 48.8125 455.125 C49.71436035 454.90473145 50.6162207 454.68446289 51.54541016 454.45751953 C105.07468118 440.94228801 151.20532275 406.74178744 179.625 359.4375 C180.13828857 358.58381836 180.65157715 357.73013672 181.18041992 356.85058594 C184.14745677 351.80547466 184.14745677 351.80547466 185.875 346.25 C175.62355746 341.67282803 165.04192282 338.10189946 154.43078613 334.4654541 C148.95331835 332.58763932 143.48052236 330.69631596 138.0078125 328.8046875 C136.89901733 328.42159424 135.79022217 328.03850098 134.64782715 327.64379883 C124.11517105 323.99869606 113.61583597 320.26348458 103.125 316.5 C99.73448233 315.28485662 96.34382772 314.07009566 92.953125 312.85546875 C92.12813507 312.55989578 91.30314514 312.26432281 90.45315552 311.95979309 C81.7625913 308.84816087 73.06410973 305.75912024 64.35876465 302.68908691 C62.71586193 302.10926264 61.07335791 301.52830729 59.43127441 300.94616699 C57.1844086 300.14987264 54.93617782 299.35756655 52.6875 298.56640625 C52.02200134 298.32972733 51.35650269 298.0930484 50.6708374 297.84919739 C44.00503518 295.51510458 42.7363897 297.00108515 37.45703125 301.328125 Z M-49.4777832 298.05981445 C-50.60983185 298.45965546 -51.74188049 298.85949646 -52.90823364 299.27145386 C-54.15152435 299.7142569 -55.39481506 300.15705994 -56.67578125 300.61328125 C-57.98574036 301.07741075 -59.2957908 301.54128258 -60.60592651 302.00491333 C-64.14753104 303.25919428 -67.68768188 304.51753157 -71.22753525 305.77674484 C-74.17391533 306.8243332 -77.12109087 307.86967339 -80.06826115 308.9150362 C-114.79857839 321.23476082 -149.50329776 333.62796363 -184.125 346.25 C-183.05927501 349.62627843 -182.02948446 352.75672164 -180.1640625 355.7734375 C-179.78113037 356.39395996 -179.39819824 357.01448242 -179.00366211 357.65380859 C-178.58995361 358.30430176 -178.17624512 358.95479492 -177.75 359.625 C-177.31373291 360.3154541 -176.87746582 361.0059082 -176.42797852 361.71728516 C-169.50370318 372.50465434 -161.83580967 382.78184499 -153.0625 392.13671875 C-151.125 394.25 -151.125 394.25 -149.1015625 396.81640625 C-147.34145917 398.98349 -145.62677073 400.70808253 -143.5 402.5 C-141.29415994 404.3757691 -139.12104095 406.2537391 -137.015625 408.2421875 C-109.73973778 433.9191434 -64.66838865 458.67935029 -26.125 458.25 C-25.89136667 438.66594308 -25.71504225 419.08216901 -25.60687828 399.49700737 C-25.55531983 390.40312992 -25.48503479 381.31011845 -25.37060547 372.21679688 C-25.27091187 364.29069447 -25.2064137 356.36521914 -25.18411505 348.4385072 C-25.1710799 344.24120332 -25.14046935 340.04569329 -25.06769943 335.84896469 C-24.99973102 331.89706451 -24.9788983 327.94769321 -24.99392319 323.99526405 C-24.99117563 322.54634275 -24.97132589 321.09733554 -24.93294525 319.64892006 C-24.8243501 315.33871343 -24.85252044 311.38720778 -26.125 307.25 C-29.12981764 304.31888427 -32.31804428 302.90467983 -36.125 301.25 C-38.04048729 299.8033886 -38.04048729 299.8033886 -39.625 298.375 C-43.39346609 295.17180382 -45.05784537 296.49213661 -49.4777832 298.05981445 Z "
        fill="#405D6D" transform="translate(255.125,7.75)" />
    <path
        d="M0 0 C1.04013748 -0.00101212 1.04013748 -0.00101212 2.10128784 -0.00204468 C23.79566467 0.03110868 44.84885881 2.91179673 65.875 8.25 C66.70628418 8.45963379 67.53756836 8.66926758 68.39404297 8.88525391 C80.52045752 12.0300358 91.83774048 16.56563702 103.20825195 21.81884766 C104.26230225 22.29112793 105.31635254 22.7634082 106.40234375 23.25 C107.80601196 23.8996875 107.80601196 23.8996875 109.23803711 24.5625 C112.56287297 25.4293399 113.88170736 24.839348 116.875 23.25 C117.98875 22.54875 119.1025 21.8475 120.25 21.125 C126.84454305 17.79011701 135.44157777 17.99004566 142.4453125 19.98046875 C149.62088197 23.32270168 154.30337703 29.34028326 157.875 36.25 C158.95387312 39.4667628 158.97886753 42.43415158 158.9375 45.8125 C158.92847656 46.76253906 158.91945313 47.71257813 158.91015625 48.69140625 C158.89275391 49.95791016 158.89275391 49.95791016 158.875 51.25 C158.875 52.24 158.875 53.23 158.875 54.25 C159.27589844 53.85167969 159.67679687 53.45335937 160.08984375 53.04296875 C165.77425429 47.74525281 171.5217178 45.23845105 179.3125 44.8125 C186.97782811 45.12018333 193.83931285 48.41928909 199.40625 53.60546875 C205.19546206 60.08753864 206.21308827 66.71109672 206.171875 75.12890625 C205.73661539 79.70485922 204.09330112 83.27665743 201.875 87.25 C201.545 87.91 201.215 88.57 200.875 89.25 C201.43832031 89.09015625 202.00164062 88.9303125 202.58203125 88.765625 C209.81303474 87.13957311 217.26671912 87.89227891 223.875 91.25 C230.91053846 95.97368301 235.15787869 101.93720711 236.875 110.25 C237.62845371 117.82800558 236.65816773 124.61830553 231.953125 130.7578125 C229.66553137 133.33727152 227.30689394 135.80637667 224.875 138.25 C224.09382813 139.04535156 223.31265625 139.84070313 222.5078125 140.66015625 C220.64508474 142.53945632 218.76907176 144.40237687 216.875 146.25 C217.69742187 146.14300781 218.51984375 146.03601563 219.3671875 145.92578125 C229.43102296 144.84502294 236.69220219 145.3295161 244.75 151.8125 C250.83180457 157.72207648 253.02297229 163.91717253 253.375 172.3125 C253.04819008 181.08002135 249.97648516 186.2496441 243.875 192.25 C242.63531435 193.48304873 241.39636026 194.7168332 240.15795898 195.95117188 C239.47052109 196.63538208 238.78308319 197.31959229 238.07481384 198.02453613 C234.96936561 201.11658834 231.86657457 204.21130118 228.76391602 207.30615234 C227.12874048 208.93627954 225.4926713 210.56551081 223.85571289 212.19384766 C221.48346695 214.55394778 219.11447976 216.9172772 216.74609375 219.28125 C216.01684189 220.00534058 215.28759003 220.72943115 214.53623962 221.47546387 C211.08171512 224.92960706 207.89991703 228.40636559 204.875 232.25 C197.56493496 237.17310503 190.58350867 238.96641654 181.9375 237.6875 C174.25239076 235.91401325 168.01409059 231.64071814 163.8046875 224.94921875 C160.28979076 218.52493269 160.689415 212.39502246 160.875 205.25 C160.875 204.26 160.875 203.27 160.875 202.25 C160.29105469 202.84748047 160.29105469 202.84748047 159.6953125 203.45703125 C154.20882261 208.65276246 148.66990463 211.08972464 141.0703125 211.34375 C132.19368218 210.85196993 125.52110105 207.86527343 119.41796875 201.37109375 C115.21784193 195.59724853 112.97198904 188.34508609 113.875 181.25 C115.10525302 175.91336189 116.36043735 171.53245029 119.875 167.25 C119.07578125 167.35699219 118.2765625 167.46398437 117.453125 167.57421875 C110.16578043 168.36966833 104.43670068 168.04825584 97.43359375 165.84375 C94.68894656 165.20682424 93.50844449 165.42144131 90.875 166.25 C80.77186819 167.33121235 73.54626591 164.53438157 65.69165039 158.33642578 C63.08746967 156.22452555 60.5113033 154.07971293 57.93408203 151.93505859 C54.44071269 149.07624484 50.84493324 146.35417169 47.25 143.625 C46.53924316 143.08149902 45.82848633 142.53799805 45.09619141 141.97802734 C41.79139304 139.45288479 38.47486044 136.94806703 35.12109375 134.48828125 C27.48575932 128.84749616 19.76367915 123.07113156 17.875 113.25 C17.00733176 103.80055054 18.5818577 97.42493791 23.625 89.5 C28.11710926 85.00789074 33.55587722 81.39018655 40.01953125 81.1171875 C41.22996094 81.11976562 42.44039063 81.12234375 43.6875 81.125 C44.89019531 81.12242188 46.09289062 81.11984375 47.33203125 81.1171875 C50.875 81.25 50.875 81.25 53.77270508 82.03930664 C56.97791875 82.58176127 56.97791875 82.58176127 59.48388672 80.43579102 C60.33225098 79.55076904 61.18061523 78.66574707 62.0546875 77.75390625 C62.51231476 77.28637436 62.96994202 76.81884247 63.44143677 76.33714294 C64.89490929 74.84457951 66.32213893 73.3295423 67.75 71.8125 C68.7327381 70.79464099 69.71709713 69.77834432 70.703125 68.76367188 C73.11280091 66.27694704 75.49952785 63.76946893 77.875 61.25 C60.32691792 49.55127861 32.18610837 46.17412984 11.421875 46.046875 C10.64789871 46.03981537 9.87392242 46.03275574 9.07649231 46.02548218 C-20.7540441 45.81521993 -48.12673129 49.28360706 -76.125 60.25 C-71.77613525 65.40421007 -67.30780572 70.39691044 -62.625 75.25 C-61.66787109 76.28833984 -61.66787109 76.28833984 -60.69140625 77.34765625 C-58.90889884 79.18119659 -57.2389241 80.81046727 -55.125 82.25 C-52.02480345 82.35916875 -52.02480345 82.35916875 -49.125 81.25 C-41.01911758 80.62959997 -34.10126868 80.74540722 -27.125 85.25 C-24.3125 87.6875 -24.3125 87.6875 -22.125 90.25 C-21.403125 91.054375 -20.68125 91.85875 -19.9375 92.6875 C-15.33834752 99.18975006 -15.28329096 106.57506162 -16.125 114.25 C-19.73980283 127.16787408 -32.54643447 134.45445821 -42.7578125 141.98828125 C-46.61716791 144.84729033 -50.39291448 147.80276458 -54.16162109 150.77978516 C-73.96217734 166.4044045 -73.96217734 166.4044045 -84.5625 166.375 C-85.48933594 166.37757813 -86.41617188 166.38015625 -87.37109375 166.3828125 C-90.125 166.25 -90.125 166.25 -92.69140625 165.6484375 C-95.56771144 165.17751755 -96.94046503 165.6835409 -99.625 166.75 C-105.8787434 168.83773005 -111.68142236 168.08827107 -118.125 167.25 C-117.50625 168.075 -116.8875 168.9 -116.25 169.75 C-111.6147084 176.82665515 -111.51662703 184.16083008 -113.125 192.25 C-115.53067449 199.72850982 -120.64088938 205.23993618 -127.375 209.125 C-135.88953526 211.67936058 -143.97485049 212.26465355 -152.125 208.25 C-155.02298456 206.12481132 -157.61027443 203.81389619 -160.125 201.25 C-159.96644531 201.79269531 -159.80789062 202.33539063 -159.64453125 202.89453125 C-157.80160993 211.25003169 -158.71635647 218.94591072 -163.125 226.25 C-167.2959795 232.62914512 -173.15590667 235.96819033 -180.45703125 237.8515625 C-188.8370848 239.11370717 -195.9572705 237.15368543 -202.77246094 232.18408203 C-205.13118002 230.24491925 -207.02227278 228.23541006 -209.015625 225.92578125 C-215.17725333 218.97364747 -221.78587192 212.48134491 -228.375 205.9375 C-229.6408614 204.67666959 -230.90648782 203.41560322 -232.171875 202.15429688 C-234.48976707 199.84449029 -236.80898902 197.53603835 -239.12988281 195.22924805 C-239.88643913 194.47584892 -239.88643913 194.47584892 -240.65827942 193.70722961 C-242.07897345 192.29572872 -243.50605999 190.89067102 -244.93334961 189.48583984 C-249.74816223 184.5739479 -251.37397685 179.04493692 -251.625 172.25 C-251.3138663 164.08792586 -248.32590788 157.74849062 -242.83203125 151.75390625 C-236.51080202 146.18485991 -229.32238147 144.96237258 -221.125 145.25 C-219.12212582 145.56560442 -217.12147991 145.89619343 -215.125 146.25 C-215.55844727 145.8375 -215.99189453 145.425 -216.43847656 145 C-218.42817401 143.09431436 -220.40149036 141.17243915 -222.375 139.25 C-223.05691406 138.60160156 -223.73882812 137.95320312 -224.44140625 137.28515625 C-230.85803831 130.99311899 -235.11577668 124.30258088 -235.4375 115.125 C-235.32243662 107.35182948 -232.0959432 100.37926375 -226.8359375 94.71875 C-219.80187938 88.68038047 -212.04291451 87.87541878 -203.125 88.25 C-200 88.75 -200 88.75 -198.125 89.25 C-198.47433594 88.71890625 -198.82367188 88.1878125 -199.18359375 87.640625 C-199.86615234 86.58101562 -199.86615234 86.58101562 -200.5625 85.5 C-201.24119141 84.45585937 -201.24119141 84.45585937 -201.93359375 83.390625 C-205.13935648 77.63076278 -204.91851795 70.37774932 -203.69921875 64.03515625 C-201.42166676 56.97893691 -196.51033474 51.20928213 -189.9375 47.8125 C-182.21890928 44.30690788 -174.29732434 44.23261653 -166.34375 47.1171875 C-162.37407477 49.1439583 -159.26520119 52.12691162 -156.125 55.25 C-156.36283203 54.15751953 -156.36283203 54.15751953 -156.60546875 53.04296875 C-158.13737959 44.80750824 -157.3816983 37.55912061 -153.125 30.25 C-149.22600256 25.26841759 -144.55293573 20.41871559 -138.125 19.25 C-128.35846739 18.26888713 -121.48015066 19.1533581 -113.125 24.25 C-109.61983407 25.41838864 -109.18936969 25.11056009 -105.9765625 23.625 C-105.14705078 23.25149414 -104.31753906 22.87798828 -103.46289062 22.49316406 C-102.56763672 22.08291992 -101.67238281 21.67267578 -100.75 21.25 C-68.76809989 7.11307314 -34.95784895 0.03099519 0 0 Z "
        fill="#FCD6AC" transform="translate(255.125,7.75)" />
    <path
        d="M0 0 C6.31507757 3.91452973 11.62494089 10.09453236 14.01171875 17.2109375 C14.45895005 19.79814655 14.4696384 22.25036434 14.4375 24.875 C14.42847656 25.82503906 14.41945313 26.77507813 14.41015625 27.75390625 C14.39275391 29.02041016 14.39275391 29.02041016 14.375 30.3125 C14.375 31.3025 14.375 32.2925 14.375 33.3125 C14.77589844 32.91417969 15.17679688 32.51585937 15.58984375 32.10546875 C21.27425429 26.80775281 27.0217178 24.30095105 34.8125 23.875 C42.47782811 24.18268333 49.33931285 27.48178909 54.90625 32.66796875 C60.69546206 39.15003864 61.71308827 45.77359672 61.671875 54.19140625 C61.23661539 58.76735922 59.59330112 62.33915743 57.375 66.3125 C57.045 66.9725 56.715 67.6325 56.375 68.3125 C56.93832031 68.15265625 57.50164062 67.9928125 58.08203125 67.828125 C65.31303474 66.20207311 72.76671912 66.95477891 79.375 70.3125 C86.41053846 75.03618301 90.65787869 80.99970711 92.375 89.3125 C93.12845371 96.89050558 92.15816773 103.68080553 87.453125 109.8203125 C85.16553137 112.39977152 82.80689394 114.86887667 80.375 117.3125 C79.59382812 118.10785156 78.81265625 118.90320313 78.0078125 119.72265625 C76.14508474 121.60195632 74.26907176 123.46487687 72.375 125.3125 C73.60863281 125.15201172 73.60863281 125.15201172 74.8671875 124.98828125 C84.93102296 123.90752294 92.19220219 124.3920161 100.25 130.875 C106.33180457 136.78457648 108.52297229 142.97967253 108.875 151.375 C108.54819008 160.14252135 105.47648516 165.3121441 99.375 171.3125 C98.13531435 172.54554873 96.89636026 173.7793332 95.65795898 175.01367188 C94.97052109 175.69788208 94.28308319 176.38209229 93.57481384 177.08703613 C90.46936561 180.17908834 87.36657457 183.27380118 84.26391602 186.36865234 C82.62874048 187.99877954 80.9926713 189.62801081 79.35571289 191.25634766 C76.98346695 193.61644778 74.61447976 195.9797772 72.24609375 198.34375 C71.51684189 199.06784058 70.78759003 199.79193115 70.03623962 200.53796387 C66.58171512 203.99210706 63.39991703 207.46886559 60.375 211.3125 C53.06493496 216.23560503 46.08350867 218.02891654 37.4375 216.75 C29.75239076 214.97651325 23.51409059 210.70321814 19.3046875 204.01171875 C15.78979076 197.58743269 16.189415 191.45752246 16.375 184.3125 C16.375 183.3225 16.375 182.3325 16.375 181.3125 C15.98570312 181.71082031 15.59640625 182.10914063 15.1953125 182.51953125 C9.70882261 187.71526246 4.16990463 190.15222464 -3.4296875 190.40625 C-12.30631782 189.91446993 -18.97889895 186.92777343 -25.08203125 180.43359375 C-29.28215807 174.65974853 -31.52801096 167.40758609 -30.625 160.3125 C-29.39474698 154.97586189 -28.13956265 150.59495029 -24.625 146.3125 C-25.82382812 146.47298828 -25.82382812 146.47298828 -27.046875 146.63671875 C-34.33421957 147.43216833 -40.06329932 147.11075584 -47.06640625 144.90625 C-49.81105344 144.26932424 -50.99155551 144.48394131 -53.625 145.3125 C-63.72813181 146.39371235 -70.95373409 143.59688157 -78.80834961 137.39892578 C-81.41253033 135.28702555 -83.9886967 133.14221293 -86.56591797 130.99755859 C-90.05928731 128.13874484 -93.65506676 125.41667169 -97.25 122.6875 C-98.31613525 121.87224854 -98.31613525 121.87224854 -99.40380859 121.04052734 C-102.70860696 118.51538479 -106.02513956 116.01056703 -109.37890625 113.55078125 C-117.01424068 107.90999616 -124.73632085 102.13363156 -126.625 92.3125 C-127.49266824 82.86305054 -125.9181423 76.48743791 -120.875 68.5625 C-116.38289074 64.07039074 -110.94412278 60.45268655 -104.48046875 60.1796875 C-103.27003906 60.18226562 -102.05960937 60.18484375 -100.8125 60.1875 C-99.60980469 60.18492188 -98.40710938 60.18234375 -97.16796875 60.1796875 C-93.625 60.3125 -93.625 60.3125 -90.72338867 61.10009766 C-87.52781715 61.64435566 -87.52781715 61.64435566 -85.05126953 59.51757812 C-84.21192871 58.63521484 -83.37258789 57.75285156 -82.5078125 56.84375 C-82.04696259 56.37062378 -81.58611267 55.89749756 -81.11129761 55.41003418 C-79.64015143 53.89319366 -78.19487664 52.35434499 -76.75 50.8125 C-75.31239415 49.30961437 -73.86976494 47.81170062 -72.4261322 46.31460571 C-71.47813484 45.33149357 -70.53198424 44.34659738 -69.58766174 43.35995483 C-66.47303998 40.12338666 -63.22829495 37.16249011 -59.80957031 34.25683594 C-54.6267486 29.64396243 -49.82300418 24.6106889 -44.9375 19.6875 C-43.81208543 18.55705619 -42.68643588 17.42684628 -41.56054688 16.296875 C-39.49244253 14.22067762 -37.42571208 12.1431341 -35.3605957 10.06396484 C-34.45784912 9.15598145 -33.55510254 8.24799805 -32.625 7.3125 C-31.7182251 6.39782959 -30.8114502 5.48315918 -29.87719727 4.54077148 C-22.21439404 -3.04062743 -9.82951648 -4.57838695 0 0 Z "
        fill="#FCD6AC" transform="translate(399.625,28.6875)" />
    <path
        d="M0 0 C1.72863281 -0.02513672 1.72863281 -0.02513672 3.4921875 -0.05078125 C10.73904258 0.67390426 15.8875752 3.32589755 21.0703125 8.453125 C21.61301788 8.97183167 22.15572327 9.49053833 22.71487427 10.02496338 C24.53290688 11.77303853 26.33013893 13.54065446 28.125 15.3125 C29.10357971 16.27144165 29.10357971 16.27144165 30.10192871 17.24975586 C34.36750513 21.43311104 38.60185518 25.64661046 42.8203125 29.87744141 C45.01448502 32.07702072 47.21401723 34.27114007 49.4140625 36.46484375 C50.83625856 37.8877 52.25814471 39.31086609 53.6796875 40.734375 C54.32461151 41.37727478 54.96953552 42.02017456 55.63400269 42.68255615 C67.04423384 54.15096768 67.04423384 54.15096768 69.125 58.3125 C68.26575799 60.24506137 67.31129816 62.13573271 66.3125 64 C61.23821334 73.91310757 59.27343793 83.43351212 62.42578125 94.34375 C63.76262135 98.10781374 65.40180381 101.71189162 67.125 105.3125 C67.62 106.364375 68.115 107.41625 68.625 108.5 C70.09284352 111.40117655 70.09284352 111.40117655 72.1875 114.1875 C76.60681715 121.31543089 76.72707904 128.25498484 75.125 136.3125 C72.71932551 143.79100982 67.60911062 149.30243618 60.875 153.1875 C52.36046474 155.74186058 44.27514951 156.32715355 36.125 152.3125 C33.22701544 150.18731132 30.63972557 147.87639619 28.125 145.3125 C28.28355469 145.85519531 28.44210938 146.39789063 28.60546875 146.95703125 C30.44839007 155.31253169 29.53364353 163.00841072 25.125 170.3125 C20.9540205 176.69164512 15.09409333 180.03069033 7.79296875 181.9140625 C-0.5870848 183.17620717 -7.7072705 181.21618543 -14.52246094 176.24658203 C-16.88118002 174.30741925 -18.77227278 172.29791006 -20.765625 169.98828125 C-26.92725333 163.03614747 -33.53587192 156.54384491 -40.125 150 C-41.3908614 148.73916959 -42.65648782 147.47810322 -43.921875 146.21679688 C-46.23976707 143.90699029 -48.55898902 141.59853835 -50.87988281 139.29174805 C-51.63643913 138.53834892 -51.63643913 138.53834892 -52.40827942 137.76972961 C-53.82897345 136.35822872 -55.25605999 134.95317102 -56.68334961 133.54833984 C-61.49816223 128.6364479 -63.12397685 123.10743692 -63.375 116.3125 C-63.0638663 108.15042586 -60.07590788 101.81099062 -54.58203125 95.81640625 C-48.26080202 90.24735991 -41.07238147 89.02487258 -32.875 89.3125 C-30.87212582 89.62810442 -28.87147991 89.95869343 -26.875 90.3125 C-27.30844727 89.9 -27.74189453 89.4875 -28.18847656 89.0625 C-30.17817401 87.15681436 -32.15149036 85.23493915 -34.125 83.3125 C-34.80691406 82.66410156 -35.48882812 82.01570313 -36.19140625 81.34765625 C-42.60803831 75.05561899 -46.86577668 68.36508088 -47.1875 59.1875 C-47.07243662 51.41432948 -43.8459432 44.44176375 -38.5859375 38.78125 C-31.55187938 32.74288047 -23.79291451 31.93791878 -14.875 32.3125 C-11.75 32.8125 -11.75 32.8125 -9.875 33.3125 C-10.22433594 32.78140625 -10.57367188 32.2503125 -10.93359375 31.703125 C-11.61615234 30.64351562 -11.61615234 30.64351562 -12.3125 29.5625 C-12.76496094 28.86640625 -13.21742187 28.1703125 -13.68359375 27.453125 C-16.93401462 21.61302455 -16.63418655 14.30788005 -15.4140625 7.88671875 C-14.75 5.75 -14.75 5.75 -12.875 2.3125 C-8.56136323 0.39393481 -4.68830398 0.01566249 0 0 Z "
        fill="#FCD6AC" transform="translate(66.875,63.6875)" />
    <path
        d="M0 0 C1.04013748 -0.00101212 1.04013748 -0.00101212 2.10128784 -0.00204468 C23.79566467 0.03110868 44.84885881 2.91179673 65.875 8.25 C66.70628418 8.45963379 67.53756836 8.66926758 68.39404297 8.88525391 C83.49269326 12.80083521 97.63561325 18.9568496 111.875 25.25 C111.875 29.75202318 111.875 29.75202318 109.12451172 32.56567383 C108.52323456 33.18924271 107.9219574 33.81281158 107.30245972 34.45527649 C106.31356247 35.4461451 106.31356247 35.4461451 105.3046875 36.45703125 C104.63084015 37.14182053 103.9569928 37.8266098 103.26272583 38.53215027 C101.83369241 39.97705588 100.3992787 41.41665703 98.95996094 42.85131836 C96.75985792 45.05263663 94.59069012 47.28157503 92.421875 49.51367188 C91.03044169 50.91324603 89.63726813 52.31109266 88.2421875 53.70703125 C87.59506805 54.37773148 86.94794861 55.0484317 86.28121948 55.73945618 C81.67872574 60.25006148 81.67872574 60.25006148 77.68334961 60.24975586 C76.29321655 59.75487671 76.29321655 59.75487671 74.875 59.25 C74.14498779 59.02666992 73.41497559 58.80333984 72.6628418 58.57324219 C71.97359619 58.31704102 71.28435059 58.06083984 70.57421875 57.796875 C51.60779911 50.98714358 31.66730478 46.17095032 11.421875 46.046875 C10.64789871 46.03981537 9.87392242 46.03275574 9.07649231 46.02548218 C-19.67294909 45.82284009 -46.53743833 48.60125442 -73.48046875 59.46484375 C-76.39011232 60.32871134 -77.3306194 60.25499177 -80.125 59.25 C-81.78289795 57.9528656 -81.78289795 57.9528656 -83.42480469 56.29077148 C-84.04514587 55.6702037 -84.66548706 55.04963593 -85.30462646 54.41026306 C-85.96206848 53.73733719 -86.6195105 53.06441132 -87.296875 52.37109375 C-87.9792926 51.6844313 -88.66171021 50.99776886 -89.36480713 50.29029846 C-91.54201196 48.09630585 -93.70855281 45.89211084 -95.875 43.6875 C-97.34956971 42.19788366 -98.82482213 40.7089428 -100.30078125 39.22070312 C-103.91682176 35.57159192 -107.52333288 31.91329621 -111.125 28.25 C-110.125 25.25 -110.125 25.25 -108.41699219 24.19433594 C-107.67610352 23.87754883 -106.93521484 23.56076172 -106.171875 23.234375 C-104.91793945 22.69345215 -104.91793945 22.69345215 -103.63867188 22.14160156 C-102.72666016 21.76487305 -101.81464844 21.38814453 -100.875 21 C-99.93205078 20.60522461 -98.98910156 20.21044922 -98.01757812 19.80371094 C-66.61794272 6.87874474 -33.97705388 0.03012558 0 0 Z "
        fill="#3F5C6B" transform="translate(255.125,7.75)" />
    <path
        d="M0 0 C3.65652776 1.89845317 6.31077524 4.16226528 9 7.3125 C10.0828125 8.5190625 10.0828125 8.5190625 11.1875 9.75 C15.78665248 16.25225006 15.84170904 23.63756162 15 31.3125 C11.38519717 44.23037408 -1.42143447 51.51695821 -11.6328125 59.05078125 C-15.49216791 61.90979033 -19.26791448 64.86526458 -23.03662109 67.84228516 C-44.04715535 84.42169818 -44.04715535 84.42169818 -59 83.3125 C-66.5451185 81.231088 -73.45066367 75.42808878 -77.5625 68.75 C-80.42294089 62.04915237 -80.24554936 53.56238952 -78.22265625 46.66015625 C-72.96707116 36.01806403 -61.31389081 29.15389599 -52.01953125 22.29296875 C-48.42989116 19.64272153 -44.89638443 16.92738181 -41.375 14.1875 C-36.7626349 10.63021342 -32.10143029 7.15435189 -27.375 3.75 C-26.48627197 3.10490479 -26.48627197 3.10490479 -25.57958984 2.44677734 C-18.08883357 -2.90314124 -8.57676194 -3.58087031 0 0 Z "
        fill="#FDD7AC" transform="translate(224,90.6875)" />
    <path
        d="M0 0 C1.20269531 -0.01417969 2.40539062 -0.02835937 3.64453125 -0.04296875 C7.16833425 0.18625328 9.90879528 0.91719021 13.1875 2.1875 C13.1875 2.8475 13.1875 3.5075 13.1875 4.1875 C13.87199219 4.40664062 14.55648437 4.62578125 15.26171875 4.8515625 C19.01980975 6.56753997 21.84034569 8.93209195 25 11.5625 C30.3876502 15.96589368 35.84750604 20.23151315 41.4375 24.375 C65.27051933 42.13704658 65.27051933 42.13704658 68.1875 51.1875 C69.22680443 60.14739823 68.6195784 67.79497226 63.1875 75.1875 C58.19113622 80.54806342 52.3554921 84.63443418 44.9609375 85.42578125 C31.72468163 85.83537223 23.90321544 78.90839973 14.24658203 70.87255859 C10.75321269 68.01374484 7.15743324 65.29167169 3.5625 62.5625 C2.49636475 61.74724854 2.49636475 61.74724854 1.40869141 60.91552734 C-1.89610696 58.39038479 -5.21263956 55.88556703 -8.56640625 53.42578125 C-16.20174068 47.78499616 -23.92382085 42.00863156 -25.8125 32.1875 C-26.68016824 22.73805054 -25.1056423 16.36243791 -20.0625 8.4375 C-14.18123922 2.55623922 -8.27854695 0.04408172 0 0 Z "
        fill="#FDD7AC" transform="translate(298.8125,88.8125)" />
    <path
        d="M0 0 C6.50475094 4.41520299 6.50475094 4.41520299 7.68359375 8.1875 C7.78800781 8.785625 7.89242187 9.38375 8 10 C6.72769531 9.51660156 6.72769531 9.51660156 5.4296875 9.0234375 C1.83671708 7.95127548 -1.13307799 7.66666951 -4.875 7.625 C-6.02742187 7.59664062 -7.17984375 7.56828125 -8.3671875 7.5390625 C-18.83790769 8.86760549 -25.1574742 16.63232703 -32.15625 23.765625 C-33.30978919 24.92663566 -34.46422298 26.0867581 -35.61950684 27.24603271 C-38.64015247 30.28186325 -41.64858512 33.32951575 -44.65454102 36.37988281 C-47.73108768 39.49753692 -50.81915974 42.60372955 -53.90625 45.7109375 C-59.94876892 51.79620107 -65.97842006 57.89401612 -72 64 C-71.36771484 65.33804688 -71.36771484 65.33804688 -70.72265625 66.703125 C-70.17480469 67.87359375 -69.62695312 69.0440625 -69.0625 70.25 C-68.51722656 71.41015625 -67.97195313 72.5703125 -67.41015625 73.765625 C-63.30194453 83.18833775 -63.00719793 97.30516882 -66.75 106.875 C-67.46029411 108.27092524 -68.20636377 109.64971613 -69 111 C-69.5775 112.155 -70.155 113.31 -70.75 114.5 C-73.77923589 117.86581765 -76.62904387 118.66545094 -81 119 C-87.32588926 118.98205421 -92.58753706 118.36450399 -98 115 C-97.484375 114.62875 -96.96875 114.2575 -96.4375 113.875 C-95.633125 113.25625 -94.82875 112.6375 -94 112 C-93.16662109 111.39671875 -93.16662109 111.39671875 -92.31640625 110.78125 C-87.37652979 106.95682952 -84.50081136 103.11869249 -83 97 C-82.24616961 90.21552646 -81.76350173 82.94466733 -85.42578125 76.91796875 C-91.81621633 69.13210367 -100.16651999 63.21681126 -108.23828125 57.30712891 C-111.73697662 54.71122882 -115.17413296 52.03393293 -118.625 49.375 C-124.10862137 45.15196025 -129.62430421 41.07221271 -135.41015625 37.26953125 C-135.93480469 36.85058594 -136.45945312 36.43164062 -137 36 C-137 34 -137 34 -135.42578125 32.4140625 C-134.72839844 31.82367188 -134.03101563 31.23328125 -133.3125 30.625 C-132.28576172 29.74714844 -132.28576172 29.74714844 -131.23828125 28.8515625 C-128.84696541 26.87340594 -126.42916725 24.93142195 -124 23 C-116.36198554 28.70644983 -108.72717159 34.41391535 -101.1875 40.25 C-92.00233808 47.74991939 -92.00233808 47.74991939 -82 54 C-81.72886383 53.40387405 -81.45772766 52.80774811 -81.17837524 52.19355774 C-80.01630797 50.03035746 -78.87542967 48.62762356 -77.14599609 46.90307617 C-76.57134613 46.32534958 -75.99669617 45.74762299 -75.40463257 45.15238953 C-74.7838382 44.53878067 -74.16304382 43.92517181 -73.5234375 43.29296875 C-72.87935944 42.64934891 -72.23528137 42.00572906 -71.57168579 41.34260559 C-70.20721862 39.98115702 -68.84032432 38.62213725 -67.47119141 37.26538086 C-65.39826306 35.21055985 -63.33330021 33.14800013 -61.26953125 31.08398438 C-59.93796785 29.75734275 -58.60595051 28.43115656 -57.2734375 27.10546875 C-56.66478851 26.49793259 -56.05613953 25.89039642 -55.42904663 25.26445007 C-51.67185515 21.54764239 -47.79859946 18.02161395 -43.77810669 14.59082031 C-41.09762651 12.1926727 -38.8438724 9.54113459 -36.5 6.8125 C-26.38399955 -4.60651879 -13.55392255 -7.27937191 0 0 Z "
        fill="#F8C795" transform="translate(449,57)" />
    <path
        d="M0 0 C6.28937906 4.70958243 11.52292805 10.48343728 16.6015625 16.4453125 C18.48316172 18.44949148 20.31635241 20.16787046 22.3984375 21.94140625 C28.25590202 26.98939129 33.67478017 32.48875176 39.13916016 37.95385742 C41.01837639 39.83085469 42.90549623 41.69966889 44.79296875 43.56835938 C45.98746644 44.7599284 47.18149464 45.95196829 48.375 47.14453125 C48.94049561 47.70284134 49.50599121 48.26115143 50.08862305 48.83638 C54 52.77113553 54 52.77113553 54 55 C59.03282645 52.27920803 63.35792718 49.27452814 67.75 45.625 C73.78992309 40.69638546 79.96591862 35.98803801 86.25 31.375 C87.07209961 30.77123535 87.89419922 30.1674707 88.74121094 29.54541016 C91.79796058 27.30937161 94.8482382 25.10117453 98 23 C101.96 26.96 105.92 30.92 110 35 C104.37818774 40.62181226 104.37818774 40.62181226 101.46875 42.76171875 C100.5104126 43.4724353 100.5104126 43.4724353 99.53271484 44.19750977 C98.86191895 44.68920654 98.19112305 45.18090332 97.5 45.6875 C96.06463781 46.75197561 94.6297481 47.8170886 93.1953125 48.8828125 C92.48536133 49.40907227 91.77541016 49.93533203 91.04394531 50.47753906 C86.54001157 53.83235641 82.09970056 57.26910973 77.66357422 60.71289062 C75.85501606 62.11217425 74.03879082 63.5011921 72.22265625 64.890625 C70.96067385 65.86424169 69.6989492 66.83819258 68.4375 67.8125 C67.85339355 68.2566626 67.26928711 68.7008252 66.66748047 69.15844727 C60.40672498 74.02274152 55.59682277 79.47906749 54.53125 87.55078125 C54.46470263 95.56142061 54.71918331 101.7076836 60 108 C62.74493731 110.77438943 65.49630427 113.24815213 69 115 C69 115.66 69 116.32 69 117 C60.79276043 120.15115272 53.43779516 120.81259839 45 118 C37.39471246 108.70207225 34.88469906 96.74885506 36 85 C37.72647244 77.90625574 40.54886289 71.40925464 44 65 C43.57589844 64.5875 43.15179688 64.175 42.71484375 63.75 C42.12832031 63.1725 41.54179687 62.595 40.9375 62 C40.36902344 61.443125 39.80054688 60.88625 39.21484375 60.3125 C37.35512822 58.37078643 35.60181229 56.392835 33.84936523 54.35595703 C30.11491658 50.07877789 26.19682313 46.01873093 22.1953125 41.9921875 C21.47189667 41.26307159 20.74848083 40.53395569 20.00314331 39.78274536 C18.48346274 38.25368644 16.96237648 36.7260234 15.43994141 35.19970703 C13.13108181 32.88110747 10.83312502 30.55204352 8.53515625 28.22265625 C7.04753652 26.72850774 5.55927632 25.23499658 4.0703125 23.7421875 C3.39501495 23.05454315 2.71971741 22.3668988 2.0239563 21.65841675 C-5.92788019 13.74287945 -12.53928749 8.87332291 -23.9375 8.8125 C-25.14277344 8.79832031 -26.34804687 8.78414062 -27.58984375 8.76953125 C-30.86019062 8.99055126 -33.06816515 9.59249674 -36 11 C-34.60930113 5.74624872 -31.39427975 2.91277972 -27 0 C-18.3499682 -4.22260205 -8.58945164 -4.54820879 0 0 Z "
        fill="#F8C795" transform="translate(91,56)" />
    <path
        d="M0 0 C3.79237957 3.11469399 7.23052044 6.52851933 10.6796875 10.015625 C11.66399847 10.99655755 12.64904974 11.97674774 13.63479614 12.95623779 C15.68499091 14.99911295 17.72600276 17.05062082 19.76074219 19.10888672 C22.35273911 21.7294063 24.96660081 24.32677541 27.58778191 26.91806412 C29.62165847 28.93376628 31.64334595 30.96135878 33.66168594 32.99260712 C35.08185613 34.41767186 36.51198986 35.8327853 37.94235229 37.24761963 C43.94271548 43.35689053 48.3256396 48.86228811 49.4609375 57.51171875 C49.43257813 58.55972656 49.40421875 59.60773438 49.375 60.6875 C49.36210938 61.74324219 49.34921875 62.79898438 49.3359375 63.88671875 C48.97909853 67.19370318 48.2643802 69.9261711 47 73 C41.82088595 76.29579985 34.41711553 76.46161615 28.5 75.4375 C21.24163752 73.50949747 15.9548059 69.29001575 11.109375 63.67578125 C4.94774667 56.72364747 -1.66087192 50.23134491 -8.25 43.6875 C-9.5158614 42.42666959 -10.78148782 41.16560322 -12.046875 39.90429688 C-14.36476707 37.59449029 -16.68398902 35.28603835 -19.00488281 32.97924805 C-19.50925369 32.47698196 -20.01362457 31.97471588 -20.53327942 31.45722961 C-21.95397345 30.04572872 -23.38105999 28.64067102 -24.80834961 27.23583984 C-29.71395815 22.2313213 -31.24625556 16.73036773 -31.375 9.8125 C-30.9870283 1.09976415 -30.9870283 1.09976415 -29 -2 C-19.20178065 -7.59591958 -9.08986661 -5.74547207 0 0 Z "
        fill="#FCD6AC" transform="translate(35,170)" />
    <path
        d="M0 0 C1.78515625 1.01953125 1.78515625 1.01953125 3.34765625 3.45703125 C4.42786805 12.25304162 4.90546259 20.37575016 -0.21484375 28.01953125 C-1.86543013 29.70510078 -3.53300159 31.36556484 -5.21484375 33.01953125 C-6.4545294 34.25257998 -7.69348349 35.48636445 -8.93188477 36.72070312 C-9.61932266 37.40491333 -10.30676056 38.08912354 -11.01502991 38.79406738 C-14.12047814 41.88611959 -17.22326918 44.98083243 -20.32592773 48.07568359 C-21.96110327 49.70581079 -23.59717245 51.33504206 -25.23413086 52.96337891 C-27.6063768 55.32347903 -29.97536399 57.68680845 -32.34375 60.05078125 C-33.07300186 60.77487183 -33.80225372 61.4989624 -34.55360413 62.24499512 C-38.00812863 65.69913831 -41.18992672 69.17589684 -44.21484375 73.01953125 C-51.77286042 78.10962411 -58.72049212 79.80912303 -67.58984375 78.14453125 C-70.00876151 77.61281868 -72.00031491 77.12679567 -74.21484375 76.01953125 C-77.16558984 69.95410873 -77.35758039 62.34899316 -75.65119934 55.88406372 C-72.90434372 47.97235748 -67.95859162 42.8995919 -62.078125 37.12109375 C-61.0731219 36.11458432 -60.06908573 35.10710859 -59.06596375 34.09872437 C-56.97146764 31.9999215 -54.86689246 29.91197335 -52.75415039 27.83154297 C-50.06350645 25.18070236 -47.39816567 22.50600922 -44.73974323 19.82290077 C-42.67360638 17.7424994 -40.59538718 15.67451221 -38.51335716 13.61002731 C-37.52639427 12.62886245 -36.54289949 11.64419476 -35.56316566 10.65581131 C-25.08536623 0.11637271 -14.7711043 -5.70524134 0 0 Z "
        fill="#FCD6AC" transform="translate(504.21484375,166.98046875)" />
    <path
        d="M0 0 C4.56652606 3.18320663 8.63677124 6.37668137 10 12 C9.32582031 11.84273437 8.65164063 11.68546875 7.95703125 11.5234375 C1.08039072 10.3061722 -8.06335252 9.21106165 -14.3125 12.9375 C-24.35538761 21.03479255 -33.43857453 30.23282386 -42.58203125 39.30859375 C-43.60149117 40.32006816 -43.60149117 40.32006816 -44.64154625 41.35197639 C-48.22961301 44.91352388 -51.81413794 48.47859691 -55.39624023 52.04614258 C-58.34246392 54.97898175 -61.29580754 57.90435768 -64.25561523 60.82348633 C-67.85747858 64.3758857 -71.44677317 67.9405409 -75.02753258 71.51420784 C-76.38394879 72.86394743 -77.74458724 74.20945876 -79.10965919 75.55044365 C-90.96427328 86.8455901 -90.96427328 86.8455901 -96.5234375 101.86328125 C-96.47445313 103.00152344 -96.42546875 104.13976562 -96.375 105.3125 C-96.34148437 106.46363281 -96.30796875 107.61476563 -96.2734375 108.80078125 C-96.03325348 111.61093424 -95.6285444 114.25398227 -95 117 C-101.53903608 113.82955827 -106.47966821 108.25186775 -108.9375 101.4375 C-111.00743562 93.90344863 -110.13684767 87.10271937 -107 80 C-103.15171894 74.24895775 -97.70025931 69.83685648 -92.55078125 65.2890625 C-87.4203477 60.68502871 -82.56958854 55.85046288 -78.1015625 50.6015625 C-72.99993535 44.73650085 -67.4515594 39.30254598 -61.94848633 33.81811523 C-60.06671726 31.94170525 -58.19035262 30.06001031 -56.31445312 28.17773438 C-50.90381837 22.76458957 -45.50281298 17.42404323 -39.66625977 12.46557617 C-36.38299594 9.5777472 -33.43372812 6.3291106 -30.49023438 3.09960938 C-22.64343374 -5.08243508 -9.70715666 -4.96685754 0 0 Z "
        fill="#F8C795" transform="translate(479,99)" />
    <path
        d="M0 0 C2.9099521 2.36228365 5.44382035 5.01408897 8 7.75 C9.33073422 9.14311238 10.66406206 10.53375199 12 11.921875 C12.66845947 12.61659912 13.33691895 13.31132324 14.02563477 14.02709961 C15.81969522 15.819829 17.65696877 17.47330539 19.58984375 19.11328125 C25.56762635 24.24439379 31.05118014 29.90261608 36.60913086 35.47875977 C38.5579687 37.43295624 40.51209272 39.38175147 42.46679688 41.33007812 C48.03605698 46.89658379 53.56879615 52.44139582 58.67211914 58.44506836 C63.09760463 63.62725572 68.11138521 68.29845518 73.3125 72.6875 C78.83974406 77.47851075 82.17327158 82.61031983 83 90 C83.1233264 99.38650901 80.94222212 106.15773677 74.4375 112.9375 C72.17198212 115.15256091 71.07606486 115.97464505 68 117 C68.15726562 116.13890625 68.31453125 115.2778125 68.4765625 114.390625 C68.97757068 111.14528843 69.26994413 108.03097556 69.375 104.75 C69.44847656 103.19539063 69.44847656 103.19539063 69.5234375 101.609375 C68.25849962 92.88696752 63.10034655 86.35654598 56.98168945 80.3347168 C55.95130302 79.29118797 55.95130302 79.29118797 54.90010071 78.22657776 C52.6501466 75.95480961 50.38262821 73.70160213 48.11328125 71.44921875 C46.52939564 69.8619599 44.94625246 68.27395988 43.36381531 66.68525696 C40.05407138 63.36816595 36.73551683 60.06022391 33.41040039 56.75854492 C29.16462903 52.54125843 24.94170434 48.30191834 20.72515583 44.05543804 C17.46297386 40.77512534 14.18889813 37.50689215 10.91118431 34.24210548 C9.349924 32.68416316 7.79232101 31.12254625 6.2385807 29.55710411 C4.05940873 27.36512936 1.86465987 25.18998786 -0.3347168 23.01831055 C-0.96416199 22.3787442 -1.59360718 21.73917786 -2.24212646 21.08023071 C-7.63958627 15.80704736 -14.34788425 10.95001554 -22.1171875 10.4765625 C-23.35726562 10.52554688 -24.59734375 10.57453125 -25.875 10.625 C-27.75832031 10.67527344 -27.75832031 10.67527344 -29.6796875 10.7265625 C-32.27699265 10.94045822 -34.52213391 11.24045311 -37 12 C-34.50835279 5.84416572 -30.82177322 1.89316039 -24.89453125 -1.04296875 C-16.55800551 -4.18576518 -7.96448319 -4.29729673 0 0 Z "
        fill="#F8C795" transform="translate(60,99)" />
    <path
        d="M0 0 C6.42864946 3.70161457 10.78974272 9.49183092 12.80859375 16.6171875 C14.12107472 25.81794695 12.12117944 33.00848427 6.80859375 40.6171875 C1.075528 46.48675482 -5.37951318 48.89307257 -13.56640625 48.9921875 C-19.4272325 48.89873469 -23.37742793 47.91459031 -28.19140625 44.6171875 C-29.07828125 44.0603125 -29.96515625 43.5034375 -30.87890625 42.9296875 C-36.53642673 37.27216702 -39.26679888 30.39721273 -39.56640625 22.4921875 C-39.48243356 15.50379345 -37.18994254 10.07703707 -32.6171875 4.80078125 C-22.62706761 -4.49072886 -12.16567296 -5.48617608 0 0 Z "
        fill="#2C3E50" transform="translate(269.19140625,237.3828125)" />
    <path
        d="M0 0 C0.93887306 0.04296204 0.93887306 0.04296204 1.89671326 0.08679199 C10.21193099 1.09975929 15.06102427 7.14034929 20.59765625 12.84375 C21.68199209 13.93607708 22.76774546 15.02699866 23.85484314 16.11657715 C26.11873857 18.39266296 28.37083008 20.67957586 30.61401367 22.97607422 C33.49374913 25.92402901 36.39292376 28.85185916 39.29988956 31.77294159 C42.07256916 34.56071161 44.8354922 37.35806722 47.59765625 40.15625 C48.12659044 40.69046066 48.65552464 41.22467133 49.20048714 41.77507019 C50.68738672 43.28034582 52.16716558 44.79225191 53.64477539 46.30664062 C54.48810928 47.16664673 55.33144318 48.02665283 56.20033264 48.91271973 C58 51 58 51 58 53 C59.485 53.495 59.485 53.495 61 54 C63.10768126 63.48456565 63.1355174 72.57975231 58 81 C55.32816945 85.03377014 52.76922939 87.63736303 48 89 C48.15855469 88.30390625 48.31710938 87.6078125 48.48046875 86.890625 C49.03518415 83.80423857 49.24056066 80.88504056 49.3125 77.75 C49.34988281 76.69296875 49.38726562 75.6359375 49.42578125 74.546875 C48.21162097 64.43258567 42.08249684 58.34269171 35.08203125 51.41796875 C34.0996687 50.4322293 33.11804865 49.44574941 32.13713074 48.45857239 C30.088285 46.40239647 28.03077846 44.35542901 25.96655273 42.31469727 C23.33817635 39.71480615 20.73289694 37.09310193 18.13374805 34.46403027 C16.11375651 32.42586089 14.08186974 30.39988476 12.04633141 28.37725258 C10.61683591 26.95265418 9.19729637 25.51808764 7.7780304 24.08329773 C1.91801007 18.32736184 -3.52117115 13.90673465 -11.78515625 12.5390625 C-17.13002401 12.74075562 -21.86360706 13.47810579 -27 15 C-25.64005084 9.39020971 -21.61501112 6.10994926 -17 3 C-11.469329 0.54096531 -6.05258239 -0.55023476 0 0 Z "
        fill="#F8C795" transform="translate(34,153)" />
    <path
        d="M0 0 C8.28949332 5.85360023 8.28949332 5.85360023 9.74609375 10.25390625 C9.82988281 10.83011719 9.91367187 11.40632812 10 12 C8.88625 11.67 7.7725 11.34 6.625 11 C-1.6008257 9.01595401 -7.77838454 9.35514818 -15.30548096 13.30044556 C-20.3051213 16.45394376 -24.3143538 20.58289567 -28.4609375 24.76171875 C-29.4229053 25.71775977 -30.38553491 26.67313527 -31.3487854 27.62788391 C-33.35203969 29.61933959 -35.34586913 31.61966002 -37.33349609 33.62670898 C-39.86331762 36.17943634 -42.41718763 38.70644526 -44.97893333 41.22708416 C-46.96815561 43.19056178 -48.94291446 45.16811175 -50.91386795 47.14991188 C-52.29910184 48.53732513 -53.69681033 49.91224804 -55.09481812 51.28678894 C-61.29763062 57.60428835 -65.31799819 63.51270101 -66.42578125 72.42578125 C-66.38839844 73.37839844 -66.35101563 74.33101563 -66.3125 75.3125 C-66.28800781 76.27800781 -66.26351563 77.24351562 -66.23828125 78.23828125 C-66.00941627 80.89086389 -65.58163112 83.40393913 -65 86 C-71.80184527 83.79905867 -75.27681776 78.37144351 -78.4375 72.1875 C-79.76087285 64.6883872 -80.07036452 57.6356088 -76.36328125 50.81640625 C-74.47223162 48.2968129 -72.2463369 46.20788321 -70 44 C-69.05381745 42.99265416 -68.1140522 41.97925457 -67.1796875 40.9609375 C-63.16657558 36.59584171 -59.09099237 32.29211379 -55 28 C-54.24293762 27.20402405 -54.24293762 27.20402405 -53.47058105 26.39196777 C-50.01649336 22.76526613 -46.5382415 19.16374131 -43.03570557 15.58380127 C-41.85557462 14.371885 -40.68172148 13.15382021 -39.5145874 11.92938232 C-28.30224746 0.1860814 -16.41651483 -7.54810925 0 0 Z "
        fill="#F8C795" transform="translate(495,156)" />

        
</svg>