<?xml version="1.0" encoding="utf-8"?>
<!-- Generator: Adobe Illustrator 26.3.1, SVG Export Plug-In . SVG Version: 6.00 Build 0)  -->
<svg version="1.1" xmlns="http://www.w3.org/2000/svg" xmlns:xlink="http://www.w3.org/1999/xlink" x="0px" y="0px"
	 viewBox="0 0 1920 1080" style="enable-background:new 0 0 1920 1080;" xml:space="preserve">
<style type="text/css">
	.st0{fill:#B50F23;}
	.st1{fill:none;stroke:#9B0E18;stroke-width:3;stroke-linecap:round;stroke-miterlimit:10;}
	.st2{fill:none;stroke:#9B0E18;stroke-width:3;stroke-linecap:round;stroke-miterlimit:10;stroke-dasharray:0,7.9187;}
	.st3{fill:none;stroke:#9B0E18;stroke-width:3;stroke-linecap:round;stroke-miterlimit:10;stroke-dasharray:0,7.9388;}
	.st4{fill:none;stroke:#9B0E18;stroke-width:3;stroke-linecap:round;stroke-miterlimit:10;stroke-dasharray:0,7.8235;}
	.st5{fill:none;stroke:#9B0E18;stroke-width:3;stroke-linecap:round;stroke-miterlimit:10;stroke-dasharray:0,8.0042;}
	.st6{fill:none;stroke:#9B0E18;stroke-width:3;stroke-linecap:round;stroke-miterlimit:10;stroke-dasharray:0,7.9997;}
	.st7{fill:none;stroke:#9B0E18;stroke-width:3;stroke-linecap:round;stroke-miterlimit:10;stroke-dasharray:0,8.1618;}
	.st8{fill:none;stroke:#9B0E18;stroke-width:3;stroke-linecap:round;stroke-miterlimit:10;stroke-dasharray:0,8.0858;}
	.st9{fill:none;stroke:#9B0E18;stroke-width:3;stroke-linecap:round;stroke-miterlimit:10;stroke-dasharray:0,7.9954;}
	.st10{fill:none;stroke:#9B0E18;stroke-width:3;stroke-linecap:round;stroke-miterlimit:10;stroke-dasharray:0,8.0206;}
	.st11{fill:none;stroke:#9B0E18;stroke-width:3;stroke-linecap:round;stroke-miterlimit:10;stroke-dasharray:0,8.0095;}
	.st12{fill:none;stroke:#9B0E18;stroke-width:3;stroke-linecap:round;stroke-miterlimit:10;stroke-dasharray:0,7.9313;}
	.st13{fill:none;stroke:#9B0E18;stroke-width:3;stroke-linecap:round;stroke-miterlimit:10;stroke-dasharray:0,8.0068;}
	.st14{opacity:0.2;}
	.st15{fill:none;stroke:#FFFFFF;stroke-width:2;stroke-linecap:round;stroke-miterlimit:10;stroke-dasharray:0,8;}
</style>
<g id="Layer_1">
	<rect class="st0" width="1920" height="1080"/>
</g>
<g id="Layer_2">
	<g>
		<g>
			<g>
				<line class="st1" x1="824.63" y1="-767.33" x2="824.63" y2="-767.33"/>
				<path class="st2" d="M816.71-767.33c-171.27-0.14-330.47-0.15-360.3-0.15"/>
				<line class="st1" x1="452.45" y1="-767.48" x2="452.45" y2="-767.48"/>
				<path class="st3" d="M459.66-764.17c31.84,14.8,159.52,75.02,312.35,147.31"/>
				<line class="st1" x1="775.6" y1="-615.16" x2="775.6" y2="-615.16"/>
				<line class="st4" x1="773.21" y1="-607.71" x2="752.91" y2="-544.39"/>
				<line class="st1" x1="751.71" y1="-540.66" x2="751.71" y2="-540.66"/>
				<line class="st5" x1="744.49" y1="-544.11" x2="-111.78" y2="-952.09"/>
				<line class="st1" x1="-115.39" y1="-953.81" x2="-115.39" y2="-953.81"/>
				<line class="st6" x1="-107.39" y1="-953.81" x2="880.58" y2="-953.81"/>
				<line class="st1" x1="884.58" y1="-953.81" x2="884.58" y2="-953.81"/>
				<line class="st7" x1="882.08" y1="-946.04" x2="825.88" y2="-771.21"/>
			</g>
		</g>
		<g>
			<g>
				<line class="st1" x1="1515.53" y1="-610.73" x2="1515.53" y2="-610.73"/>
				<line class="st8" x1="1513.05" y1="-603.04" x2="1424.87" y2="-329.87"/>
				<line class="st1" x1="1423.63" y1="-326.02" x2="1423.63" y2="-326.02"/>
				<line class="st9" x1="1416.41" y1="-329.46" x2="531.83" y2="-749.95"/>
				<line class="st1" x1="528.22" y1="-751.67" x2="528.22" y2="-751.67"/>
				<polyline class="st10" points="536.24,-751.66 1216.11,-751.19 1511.9,-612.44 				"/>
			</g>
		</g>
		<g>
			<g>
				<line class="st1" x1="1010.53" y1="-865.13" x2="1010.53" y2="-865.13"/>
				<line class="st11" x1="1017.78" y1="-861.73" x2="1898.78" y2="-448.37"/>
				<line class="st1" x1="1902.4" y1="-446.67" x2="1902.4" y2="-446.67"/>
				<line class="st12" x1="1904.78" y1="-454.24" x2="2034.2" y2="-866.66"/>
				<line class="st1" x1="2035.39" y1="-870.45" x2="2035.39" y2="-870.45"/>
				<line class="st13" x1="2027.38" y1="-870.41" x2="1014.53" y2="-865.15"/>
			</g>
		</g>
	</g>
	<g class="st14">
		<g>
			<path class="st15" d="M-130.04-436.7C-70.77-369.54-2.14-268.11-1.39-143.33C-0.46,12.97-106.95,54.56-118.9,234.4
				c-12.03,180.96,92.23,213.36,74.34,399.77c-12.62,131.53-68.7,161.68-91.13,327.37c-15.03,111.03-4.56,206.12,5.65,266.15"/>
			<path class="st15" d="M-27.08-436.7C30.33-369.78,96.77-268.56,96.59-144.68C96.38,10.42-8.12,51.09-20.58,227.81
				c-13.02,180.23,91.85,213.43,74.8,400.07C42.18,764.29-19.08,796.6-40.56,966.35c-13.88,109.64-3.26,203.24,7.2,262.32"/>
			<path class="st15" d="M75.89-436.7c55.55,66.69,119.79,167.7,118.68,290.67C193.22,7.87,90.71,47.63,77.75,221.21
				c-14,179.49,90.95,213.45,75.26,400.37c-11.86,141.25-77.94,175.74-98.44,349.56c-12.77,108.24-1.95,200.37,8.76,258.49"/>
			<path class="st15" d="M178.86-436.7c53.68,66.46,115.73,167.25,113.7,289.32c-2.5,152.7-102.6,191.57-116.48,362
				c-14.56,178.8,90.37,213.51,75.71,400.67c-11.44,146.11-82.61,182.75-102.09,360.65c-11.7,106.83-0.64,197.49,10.32,254.66"/>
			<path class="st15" d="M281.82-436.7c51.82,66.22,111.67,166.8,108.71,287.97C386.89,2.77,288.89,40.74,274.4,208.02
				c-15.43,178.08,89.83,213.56,76.17,400.97c-11.01,150.98-87.32,189.75-105.75,371.74c-10.67,105.41,0.66,194.62,11.88,250.83"/>
			<path class="st15" d="M384.79-436.7c49.96,65.98,107.61,166.35,103.73,286.62c-4.79,150.29-100.7,187.36-115.8,351.51
				c-16.31,177.36,89.33,213.63,76.63,401.27c-10.55,155.85-92.08,196.74-109.4,382.83c-9.68,103.99,1.97,191.74,13.44,247"/>
			<path class="st15" d="M487.76-436.7c48.09,65.75,103.55,165.9,98.75,285.28C580.57-2.33,486.73,33.83,471.05,194.83
				c-17.2,176.65,88.86,213.69,77.08,401.57c-10.08,160.73-96.88,203.72-113.06,393.93c-8.72,102.56,3.27,188.86,15,243.17"/>
			<path class="st15" d="M590.72-436.7c46.23,65.51,99.49,165.45,93.76,283.93C677.4-4.88,585.62,30.38,569.37,188.24
				C551.26,364.17,657.79,402,646.91,590.11c-9.58,165.6-101.72,210.69-116.71,405.02c-7.8,101.12,4.58,185.99,16.55,239.34"/>
			<path class="st15" d="M693.69-436.7c44.37,65.28,95.42,165,88.78,282.58C774.24-7.43,684.5,26.92,667.7,181.64
				c-19.03,175.21,88,213.83,78,402.17c-9.06,170.48-106.61,217.65-120.37,416.11c-6.91,99.68,5.88,183.11,18.11,235.51"/>
			<path class="st15" d="M796.65-436.7c42.5,65.04,91.37,164.55,83.79,281.23C871.08-9.99,783.36,23.47,766.02,175.05
				c-19.96,174.49,87.61,213.91,78.45,402.47c-8.52,175.36-111.55,224.61-124.02,427.2c-6.05,98.24,7.19,180.24,19.67,231.68"/>
			<path class="st15" d="M899.62-436.7c40.64,64.81,87.3,164.1,78.81,279.88C967.92-12.54,882.21,20.01,864.35,168.45
				c-20.92,173.77,87.25,213.98,78.91,402.77c-7.96,180.24-116.54,231.57-127.67,438.3c-5.21,96.8,8.49,177.36,21.23,227.85"/>
			<path class="st15" d="M1002.59-436.7c38.78,64.57,83.24,163.66,73.82,278.53c-11.66,143.09-95.37,174.72-113.74,320.03
				c-21.88,173.05,86.9,214.05,79.37,403.07c-7.38,185.12-121.59,238.52-131.33,449.39c-4.4,95.36,9.8,174.49,22.79,224.02"/>
			<path class="st15" d="M1105.55-436.7c36.92,64.34,79.18,163.21,68.84,277.18c-12.8,141.89-94.53,172.61-113.4,314.78
				c-22.87,172.33,86.57,214.13,79.82,403.37c-6.77,190-126.7,245.47-134.98,460.48c-3.62,93.91,11.1,171.61,24.35,220.19"/>
			<path class="st15" d="M1208.52-436.7c35.05,64.1,75.12,162.76,63.86,275.83c-13.95,140.68-93.71,170.49-113.06,309.53
				c-23.88,171.6,86.26,214.2,80.28,403.67c-6.15,194.88-131.86,252.42-138.64,471.57c-2.86,92.47,12.41,168.73,25.9,216.36"/>
			<path class="st15" d="M1311.49-436.7c33.19,63.87,71.06,162.31,58.87,274.48c-15.09,139.48-92.91,168.38-112.71,304.29
				c-24.9,170.87,85.97,214.28,80.74,403.97c-5.51,199.76-137.09,259.37-142.29,482.66c-2.12,91.02,13.71,165.86,27.46,212.53"/>
			<path class="st15" d="M1414.45-436.7c31.33,63.63,67,161.86,53.89,273.13c-16.24,138.28-92.12,166.26-112.37,299.04
				c-25.95,170.14,85.69,214.35,81.2,404.27c-4.84,204.64-142.38,266.32-145.95,493.76c-1.4,89.58,15.02,162.98,29.02,208.7"/>
			<path class="st15" d="M1517.42-436.7c29.46,63.39,62.94,161.41,48.9,271.78c-17.38,137.08-91.35,164.13-112.03,293.8
				c-27.02,169.4,85.42,214.43,81.65,404.57c-4.16,209.52-147.75,273.28-149.6,504.85c-0.71,88.13,16.32,160.11,30.58,204.87"/>
			<path class="st15" d="M1620.39-436.7c27.6,63.16,58.88,160.96,43.92,270.44c-18.53,135.88-90.59,162.01-111.69,288.55
				c-28.12,168.66,85.17,214.5,82.11,404.87c-3.45,214.4-153.18,280.23-153.25,515.94c-0.03,86.69,17.63,157.23,32.14,201.04"/>
			<path class="st15" d="M1723.35-436.7c25.74,62.92,54.82,160.51,38.93,269.09c-19.67,134.68-89.85,159.88-111.34,283.3
				c-29.24,167.91,84.93,214.57,82.57,405.17c-2.72,219.28-158.7,287.2-156.91,527.03c0.64,85.26,18.94,154.35,33.7,197.21"/>
			<path class="st15" d="M1826.32-436.7c23.88,62.69,50.76,160.07,33.95,267.74c-20.82,133.48-89.13,157.74-111,278.06
				c-30.39,167.15,85.04,214.64,83.02,405.47c-1.58,224.16-164.29,294.17-160.56,538.13c1.28,83.82,20.24,151.48,35.25,193.38"/>
			<path class="st15" d="M1929.29-436.7c22.01,62.45,46.7,159.62,28.97,266.39c-21.96,132.28-88.58,155.57-110.66,272.81
				c-31.79,166.34,84.66,214.71,83.48,405.77c-1,229.03-169.97,301.15-164.22,549.22c1.91,82.39,21.55,148.6,36.81,189.55"/>
			<path class="st15" d="M2032.25-436.7c20.15,62.22,42.64,159.17,23.98,265.04c-23.11,131.08-87.73,153.46-110.32,267.56
				c-32.78,165.61,84.28,214.78,83.94,406.07c-0.42,233.91-175.73,308.14-167.87,560.31c2.52,80.96,22.85,145.73,38.37,185.72"/>
		</g>
	</g>
</g>
</svg>
