<?xml version="1.0" encoding="utf-8"?>
<!-- Generator: Adobe Illustrator 26.3.1, SVG Export Plug-In . SVG Version: 6.00 Build 0)  -->
<svg version="1.1" id="Layer_1" xmlns="http://www.w3.org/2000/svg" xmlns:xlink="http://www.w3.org/1999/xlink" x="0px" y="0px"
	 viewBox="0 0 116 67.1" style="enable-background:new 0 0 116 67.1;" xml:space="preserve">
<style type="text/css">
	.st0{fill:#FFFFFF;}
	.st1{fill:#0F4D8D;}
	.st2{fill:#0068AB;}
	.st3{fill:#26AAE1;}
</style>
<g>
	<g>
		<path class="st0" d="M1.6,52.3h4.1c1.5,0,2.5,0.7,2.5,2.1c0,0.8-0.4,1.5-1.2,1.8v0c1,0.2,1.6,1,1.6,2.2c0,1.3-0.9,2.3-3.1,2.3H1.6
			V52.3z M3,55.8h2.4c0.7,0,1.2-0.4,1.2-1.2c0-0.8-0.4-1.2-1.2-1.2H3V55.8z M3,59.5h2.6C6.5,59.5,7,59,7,58.2c0-0.8-0.5-1.3-1.4-1.3
			H3V59.5z"/>
		<path class="st0" d="M15,60.7h-1.3v-0.8h0c-0.3,0.6-1.1,1-1.7,1c-1.6,0-2.3-0.8-2.3-2.4v-3.8H11v3.7c0,1.1,0.4,1.5,1.2,1.5
			c1.1,0,1.5-0.7,1.5-1.7v-3.5H15V60.7z"/>
		<path class="st0" d="M17.4,58.7c0.1,0.8,0.7,1.1,1.4,1.1c0.5,0,1.4-0.1,1.3-0.8c0-0.7-1-0.8-2-1c-1-0.2-1.9-0.6-1.9-1.8
			c0-1.3,1.4-1.7,2.5-1.7c1.2,0,2.4,0.5,2.5,1.9h-1.4c-0.1-0.6-0.6-0.8-1.2-0.8c-0.4,0-1.1,0.1-1.1,0.6c0,0.7,1,0.8,2,1
			c1,0.2,2,0.6,2,1.8c0,1.4-1.5,2-2.7,2c-1.5,0-2.7-0.7-2.7-2.1H17.4z"/>
		<path class="st0" d="M26.9,57.9c0,1.3,1,1.8,2.1,1.8c1.3,0,1.8-0.6,1.8-1.3c0-0.6-0.4-0.9-0.7-1c-0.6-0.2-1.3-0.4-2.5-0.7
			c-1.4-0.4-1.9-1.3-1.9-2.1c0-1.7,1.5-2.5,3.1-2.5c1.7,0,3.2,0.9,3.2,2.7h-1.5c-0.1-1.1-0.8-1.5-1.8-1.5c-0.7,0-1.5,0.2-1.5,1.1
			c0,0.6,0.4,0.9,1,1.1c0.1,0,2,0.5,2.4,0.6c1.1,0.3,1.6,1.2,1.6,2.1c0,1.9-1.7,2.6-3.3,2.6c-1.9,0-3.5-0.9-3.5-3H26.9z"/>
		<path class="st0" d="M34.4,58c0,1,0.5,1.8,1.6,1.8c0.8,0,1.2-0.3,1.5-1h1.3c-0.3,1.3-1.4,2.1-2.7,2.1c-1.9,0-3-1.3-3-3.2
			c0-1.7,1.1-3.2,2.9-3.2c1.9,0,3.1,1.7,2.9,3.5H34.4z M37.5,57.1c-0.1-0.8-0.6-1.6-1.5-1.6c-0.9,0-1.6,0.7-1.6,1.6H37.5z"/>
		<path class="st0" d="M39.9,54.6h1.3v1.2h0c0.2-0.6,1-1.3,1.8-1.3c0.3,0,0.4,0,0.5,0v1.3c-0.2,0-0.4-0.1-0.6-0.1
			c-0.9,0-1.6,0.7-1.6,2.1v2.9h-1.3V54.6z"/>
		<path class="st0" d="M43.4,54.6h1.5l1.5,4.7h0l1.5-4.7h1.4l-2.2,6.1h-1.5L43.4,54.6z"/>
		<path class="st0" d="M50.1,52.3h1.3v1.3h-1.3V52.3z M50.1,54.6h1.3v6.1h-1.3V54.6z"/>
		<path class="st0" d="M57,56.6c-0.1-0.8-0.6-1.1-1.4-1.1c-0.7,0-1.7,0.4-1.7,2.2c0,1,0.4,2.1,1.6,2.1c0.8,0,1.3-0.5,1.4-1.4h1.3
			c-0.2,1.6-1.2,2.4-2.8,2.4c-1.9,0-2.9-1.3-2.9-3.1c0-1.8,1-3.3,3-3.3c1.4,0,2.6,0.7,2.7,2.2H57z"/>
		<path class="st0" d="M60.5,58c0,1,0.5,1.8,1.6,1.8c0.8,0,1.2-0.3,1.5-1h1.3c-0.3,1.3-1.4,2.1-2.7,2.1c-1.9,0-3-1.3-3-3.2
			c0-1.7,1.1-3.2,2.9-3.2c1.9,0,3.1,1.7,2.9,3.5H60.5z M63.6,57.1c-0.1-0.8-0.6-1.6-1.5-1.6c-0.9,0-1.6,0.7-1.6,1.6H63.6z"/>
		<path class="st0" d="M69.4,52.3h1.5v7.1h4.3v1.3h-5.7V52.3z"/>
		<path class="st0" d="M76,52.3h1.3v1.3H76V52.3z M76,54.6h1.3v6.1H76V54.6z"/>
		<path class="st0" d="M78.8,54.6H80v0.8h0c0.4-0.6,0.9-1,1.9-1c0.7,0,1.4,0.3,1.7,1c0.5-0.6,1-1,1.9-1c1.3,0,2,0.6,2,2v4.2h-1.3
			v-3.5c0-1-0.1-1.6-1.1-1.6c-0.9,0-1.3,0.6-1.3,1.6v3.6h-1.3v-3.9c0-0.8-0.3-1.3-1.1-1.3c-0.7,0-1.3,0.6-1.3,1.6v3.6h-1.3V54.6z"/>
		<path class="st0" d="M89,52.3h1.3v1.3H89V52.3z M89,54.6h1.3v6.1H89V54.6z"/>
		<path class="st0" d="M91.2,54.6h1v-1.8h1.3v1.8h1.2v1h-1.2v3.2c0,0.6,0,0.8,0.6,0.8c0.2,0,0.4,0,0.6,0v1c-0.3,0-0.6,0.1-0.9,0.1
			c-1.4,0-1.6-0.5-1.7-1.5v-3.6h-1V54.6z"/>
		<path class="st0" d="M96.7,58c0,1,0.5,1.8,1.6,1.8c0.8,0,1.2-0.3,1.5-1h1.3c-0.3,1.3-1.4,2.1-2.7,2.1c-1.9,0-3-1.3-3-3.2
			c0-1.7,1.1-3.2,2.9-3.2c1.9,0,3.1,1.7,2.9,3.5H96.7z M99.9,57.1c-0.1-0.8-0.6-1.6-1.5-1.6c-0.9,0-1.6,0.7-1.6,1.6H99.9z"/>
		<path class="st0" d="M107.9,60.7h-1.3v-0.8h0c-0.4,0.7-1.1,1-1.9,1c-1.9,0-2.8-1.4-2.8-3.2c0-2.2,1.3-3.2,2.6-3.2
			c0.8,0,1.6,0.3,2,1h0v-3.1h1.3V60.7z M104.9,59.8c1.2,0,1.7-1.1,1.7-2.1c0-1.3-0.6-2.1-1.7-2.1c-1.3,0-1.7,1.1-1.7,2.2
			C103.3,58.8,103.8,59.8,104.9,59.8z"/>
	</g>
</g>
<g>
	<g>
		<path class="st1" d="M49.7,9.3c-6.8,0-13.1,0-13.6,0c0.3,0.1,5.5,2.6,11.8,5.6L47,17.6L15.3,2.5h36.7L49.7,9.3z"/>
		<polygon class="st2" points="75,15.1 71.7,25.5 38.9,9.9 64.1,9.9 		"/>
		<polygon class="st3" points="56.5,5.7 89.2,21.1 94.1,5.5 		"/>
	</g>
	<g>
		<path class="st3" d="M113.6,30c-0.8-1.4-1.9-2.4-3.3-3c-1.4-0.6-3.5-1-6.4-1l-6.9,0l-0.2,0.6l0.3,0c0.8,0,1.3,0.1,1.6,0.3
			c0.3,0.2,0.4,0.5,0.4,0.9c0,0.6-0.2,1.3-0.5,2.3l-3.9,12.6c-0.4,1.3-0.7,2.2-1,2.6c-0.2,0.3-0.5,0.5-0.9,0.7
			c-0.3,0.1-0.8,0.2-1.7,0.2l-0.2,0.6l9.1,0c2.2,0,4-0.2,5.5-0.7c1.5-0.4,2.8-1.1,4.1-2.1c1.3-0.9,2.2-1.8,2.8-2.6
			c0.6-0.8,1.2-1.8,1.7-3.1c0.5-1.3,0.7-2.6,0.7-4C114.8,32.9,114.4,31.4,113.6,30z M110.2,39.9c-0.8,1.7-1.8,3-3.1,3.9
			c-0.9,0.7-2.1,1.1-3.5,1.5c-1.4,0.3-3,0.5-4.6,0.5c-0.6,0-1.1,0-1.3-0.1c-0.2-0.1-0.3-0.2-0.4-0.3C97.1,45.2,97,45,97,44.9
			c0-0.3,0.2-1,0.5-2.2l4.8-15.6c0.9,0,1.6-0.1,2.2-0.1c2.3,0,4,0.6,5.2,1.8c1.2,1.2,1.8,3,1.7,5.4C111.4,36.3,111,38.2,110.2,39.9z
			"/>
		<path class="st3" d="M84.1,25.5c1.5,0,2.8,0.3,3.9,0.9c1.1,0.6,2,1.5,2.7,2.7c0.7,1.2,1,2.4,1,3.6c0,2.2-0.6,4.6-1.9,7
			c-1.3,2.5-3.1,4.3-5.2,5.6c-2.2,1.3-4.4,1.9-6.8,1.9c-1.7,0-3.1-0.4-4.3-1.1c-1.2-0.7-2-1.7-2.6-2.8C70.3,42.2,70,41.1,70,40
			c0-1.9,0.4-3.9,1.4-5.8c0.9-1.9,2.1-3.5,3.4-4.8c1.3-1.3,2.8-2.3,4.3-2.9C80.7,25.8,82.3,25.5,84.1,25.5z M83.5,26.5
			c-1.1,0-2.1,0.3-3.2,0.8c-1,0.5-2,1.3-3,2.5c-1,1.2-1.9,2.7-2.6,4.5c-0.9,2.3-1.4,4.5-1.4,6.5c0,1.5,0.5,2.7,1.3,3.9
			c0.8,1.1,2,1.7,3.7,1.7c1,0,1.9-0.2,2.9-0.7c0.9-0.5,1.9-1.2,2.9-2.4c1.3-1.4,2.3-3.2,3.1-5.4c0.8-2.2,1.2-4.2,1.2-6.1
			c0-1.4-0.4-2.6-1.3-3.7C86.3,27,85.1,26.5,83.5,26.5z"/>
		<path class="st3" d="M60.1,25.5c1.5,0,2.8,0.3,3.9,0.9c1.1,0.6,2,1.5,2.7,2.7c0.7,1.2,1,2.4,1,3.6c0,2.2-0.6,4.6-1.9,7
			c-1.3,2.5-3.1,4.3-5.2,5.6c-2.2,1.3-4.4,1.9-6.8,1.9c-1.7,0-3.1-0.4-4.3-1.1c-1.2-0.7-2-1.7-2.6-2.8c-0.6-1.2-0.9-2.3-0.9-3.4
			c0-1.9,0.4-3.9,1.4-5.8c0.9-1.9,2.1-3.5,3.4-4.8c1.3-1.3,2.8-2.3,4.3-2.9C56.7,25.8,58.4,25.5,60.1,25.5z M59.6,26.5
			c-1.1,0-2.1,0.3-3.2,0.8c-1,0.5-2,1.3-3,2.5c-1,1.2-1.9,2.7-2.6,4.5c-0.9,2.3-1.4,4.5-1.4,6.5c0,1.5,0.5,2.7,1.3,3.9
			c0.8,1.1,2,1.7,3.7,1.7c1,0,1.9-0.2,2.9-0.7c0.9-0.5,1.9-1.2,2.9-2.4c1.3-1.4,2.3-3.2,3.1-5.4c0.8-2.2,1.2-4.2,1.2-6.1
			c0-1.4-0.4-2.6-1.3-3.7C62.4,27,61.2,26.5,59.6,26.5z"/>
		<path class="st3" d="M29,26.6l0.2-0.6l7.7,0c1.3,0,2.5,0.2,3.5,0.6c1,0.4,1.8,0.9,2.3,1.6c0.5,0.7,0.7,1.4,0.7,2.2
			c0,1.2-0.5,2.3-1.4,3.2c-0.9,1-2.4,1.7-4.4,2.1c1.3,0.5,2.3,1.1,2.9,1.9c0.6,0.8,0.9,1.6,0.9,2.6c0,1-0.3,2-0.9,3
			c-0.6,0.9-1.3,1.7-2.2,2.2c-0.9,0.5-1.9,0.9-3.2,1.1c-0.9,0.2-2.2,0.3-4.1,0.3l-8,0l0.2-0.6c0.8,0,1.4-0.1,1.7-0.2
			c0.4-0.2,0.7-0.4,0.9-0.7c0.3-0.4,0.6-1.3,1.1-2.7L31.1,30c0.3-1.1,0.5-1.8,0.5-2.2c0-0.4-0.1-0.7-0.4-0.9
			c-0.3-0.2-0.8-0.3-1.7-0.3C29.3,26.6,29.2,26.6,29,26.6z M28.8,45.4c1.2,0.1,2.1,0.2,2.7,0.2c1.7,0,3.1-0.5,4.4-1.4
			c1.3-1,2-2.3,2-3.9c0-1.3-0.4-2.2-1.1-2.9c-0.8-0.7-2.1-1.1-3.8-1.1c-0.3,0-0.8,0-1.2,0L28.8,45.4z M32.1,35.2c0.7,0,1.2,0,1.5,0
			c2.2,0,3.9-0.5,5-1.4c1.1-0.9,1.7-2.1,1.7-3.5c0-1.1-0.3-1.9-1-2.5c-0.7-0.6-1.7-0.9-3.2-0.9c-0.4,0-0.9,0.1-1.5,0.2L32.1,35.2z"
			/>
		<g>
			<path class="st3" d="M20.6,25.7L19,43.1c-0.1,0.8-0.1,1.3-0.1,1.6c0,0.4,0.1,0.7,0.3,0.9c0.2,0.3,0.5,0.5,0.9,0.7
				c0.4,0.1,1,0.2,1.8,0.2l-0.2,0.6L12.9,47l0.2-0.6l0.4,0c0.7,0,1.3-0.1,1.7-0.4c0.3-0.2,0.6-0.5,0.7-1c0.1-0.3,0.2-1.1,0.3-2.2
				l0.2-2.7l-6.4-0.1l-2.3,2.9c-0.5,0.6-0.8,1.1-1,1.4c-0.1,0.3-0.2,0.5-0.2,0.8c0,0.3,0.1,0.6,0.4,0.9c0.3,0.2,0.8,0.4,1.4,0.4
				l-0.2,0.6l-6.6-0.1l0.2-0.6c0.8,0,1.5-0.3,2.1-0.7c0.6-0.5,1.5-1.5,2.8-3L20,25.7L20.6,25.7z M17.4,30.8L11,38.9l5.6,0.1
				L17.4,30.8z"/>
		</g>
	</g>
</g>
</svg>
