<?xml version="1.0" encoding="utf-8"?>
<!-- Generator: Adobe Illustrator 26.3.1, SVG Export Plug-In . SVG Version: 6.00 Build 0)  -->
<svg version="1.1" id="Layer_1" xmlns="http://www.w3.org/2000/svg" xmlns:xlink="http://www.w3.org/1999/xlink" x="0px" y="0px"
	 viewBox="0 0 824.468 824.468" style="enable-background:new 0 0 824.468 824.468;" xml:space="preserve">
<style type="text/css">
	.st0{display:none;}
	.st1{fill:#D30F1E;}
	.st2{fill:#0F4D8D;}
</style>
<g id="Layer_1_00000053515541499261354140000011355428200111312798_" class="st0">
</g>
<g id="Layer_2_00000096035046973445503870000000988137280226066857_">
</g>
<g id="Layer_3">
	<g>
		<path class="st1" d="M512.26,620.289H309.109c-55.866,0-101.155-45.288-101.155-101.155v-34.79
			c0-55.828,6.897-111.443,20.532-165.581c6.907-27.423,13.814-54.846,20.721-82.267c8.951-35.537,40.91-60.444,77.556-60.444
			H496.56c36.913,0,69.031,25.262,77.727,61.135c6.682,27.562,13.363,55.125,20.045,82.686
			c12.676,52.294,19.083,105.91,19.083,159.717v39.543C613.416,575,568.126,620.289,512.26,620.289z"/>
		<path class="st2" d="M478.292,154.135H344.34c-21.535,0-37.333-20.24-32.105-41.129l12.198-48.736
			c6.435-25.709,29.538-43.744,56.041-43.744h61.683c26.503,0,49.606,18.033,56.041,43.744l12.198,48.736
			C515.625,133.895,499.827,154.135,478.292,154.135z"/>
		<path class="st2" d="M634.818,683.089l-10.35,43.548c-10.747,45.232-52.627,77.306-100.929,77.306H300.93
			c-48.302,0-90.183-32.075-100.946-77.306l-10.334-43.548c-6.62-27.832,15.402-54.377,45.133-54.377l0,0
			c2.27,0,4.528,0.282,6.732,0.825c54.397,13.399,111.268,20.486,169.803,20.486s115.407-7.088,169.803-20.486
			c2.204-0.543,4.462-0.825,6.732-0.825h1.832C619.416,628.712,641.438,655.256,634.818,683.089z"/>
	</g>
</g>
</svg>
