<?xml version="1.0" encoding="utf-8"?>

<!DOCTYPE svg PUBLIC "-//W3C//DTD SVG 1.1//EN" "http://www.w3.org/Graphics/SVG/1.1/DTD/svg11.dtd">
<!-- Uploaded to: SVG Repo, www.svgrepo.com, Generator: SVG Repo Mixer Tools -->
<svg version="1.1" id="_x32_" xmlns="http://www.w3.org/2000/svg" xmlns:xlink="http://www.w3.org/1999/xlink" 
	 viewBox="0 0 512 512"  xml:space="preserve">
<style type="text/css">
	.st0{fill:#000000;}
</style>
<g>
	<rect x="247.09" y="18.527" class="st0" width="29.967" height="474.002"/>
	<path class="st0" d="M106.846,97.722c21.867,0,39.598-17.73,39.598-39.606c0-21.867-17.73-39.589-39.598-39.589
		c-21.885,0-39.598,17.722-39.598,39.589C67.248,79.992,84.961,97.722,106.846,97.722z"/>
	<path class="st0" d="M184.04,154.202c-8.026-27.097-26.002-45.054-46.244-45.054c-14.994,0-30.95,0-30.95,0s-15.956,0-30.949,0
		c-20.243,0-38.238,17.958-46.264,45.054L0.478,257.652c-2.153,8.715,3.172,17.608,11.877,19.742
		c8.724,2.153,17.448-2.946,19.6-11.66l29.062-103.13h8.573L19.02,341.994H66.7v133.068c0,10.169,8.252,18.411,18.411,18.411
		c10.178,0,18.429-8.242,18.429-18.411V341.994h10.141v133.068c0,10.169,8.252,18.411,18.43,18.411
		c10.159,0,18.411-8.242,18.411-18.411V341.994h44.13l-50.569-179.389h8.573l29.061,103.13c2.152,8.714,10.895,13.813,19.6,11.66
		c8.724-2.134,14.03-11.028,11.877-19.742L184.04,154.202z"/>
	<path class="st0" d="M423.174,97.722c21.886,0,39.598-17.73,39.598-39.606c0-21.867-17.712-39.589-39.598-39.589
		c-21.866,0-39.598,17.722-39.598,39.589C383.577,79.992,401.308,97.722,423.174,97.722z"/>
	<path class="st0" d="M471.93,108.902H367.884c-19.184,0-40.07,20.884-40.07,40.07v133.097c0,9.593,7.78,17.373,17.373,17.373
		c9.592,0,17.372-7.78,17.372-17.373V172.642h8.006v297.067c0,12.604,10.215,22.82,22.829,22.82
		c12.614,0,22.829-10.216,22.829-22.82V297.307h7.365v172.402c0,12.604,10.215,22.82,22.829,22.82
		c12.595,0,22.83-10.216,22.83-22.82V172.642h8.006v109.426c0,9.593,7.78,17.373,17.372,17.373c9.593,0,17.373-7.78,17.373-17.373
		V148.971C512,129.786,491.115,108.902,471.93,108.902z"/>
</g>
</svg>