<?xml version="1.0" encoding="utf-8"?>
<!-- Generator: Adobe Illustrator 26.3.1, SVG Export Plug-In . SVG Version: 6.00 Build 0)  -->
<svg version="1.1" id="Layer_1" xmlns="http://www.w3.org/2000/svg" xmlns:xlink="http://www.w3.org/1999/xlink" x="0px" y="0px"
	 viewBox="0 0 500 500" style="enable-background:new 0 0 500 500;" xml:space="preserve">
<style type="text/css">
	.st0{fill:#0F4D8D;}
	.st1{fill:#3F3F3F;}
	.st2{fill:#F87474;}
	.st3{fill:#D30F1E;}
	.st4{fill:#FFFFFF;}
</style>
<g>
	<g>
		<ellipse class="st0" cx="56.48" cy="272.85" rx="30.84" ry="30.84"/>
		<ellipse class="st0" cx="443.52" cy="272.88" rx="30.84" ry="30.84"/>
	</g>
	<g>
		<path class="st0" d="M420.18,216.35h-26.17c0-79.44-64.49-143.93-143.93-143.93s-143.93,64.49-143.93,143.93H79.98
			c0-93.93,76.17-170.1,170.1-170.1S420.18,122.42,420.18,216.35z"/>
	</g>
	<g>
		<path class="st1" d="M293.54,443.47c-11.22,0-18.69-0.47-19.63-0.47l0.93-10.28c0.93,0,107.01,7.94,119.63-35.98
			c14.02-48.6,7.01-100.01,7.01-100.47l10.28-1.4c0.47,1.87,7.48,53.74-7.48,104.68C392.61,438.33,327.19,443.47,293.54,443.47z"/>
	</g>
	<path class="st2" d="M298.21,453.75h-47.2c-4.21,0-7.48-3.27-7.48-7.48v-18.69c0-4.21,3.27-7.48,7.48-7.48h47.2
		c4.21,0,7.48,3.27,7.48,7.48v18.69C305.69,450.48,302.42,453.75,298.21,453.75z"/>
	<path class="st3" d="M329.99,308.88h-79.91l-57.95,34.58c-2.34,1.4-5.14-0.93-4.67-3.27l8.41-31.31h-25.7
		c-7.01,0-13.08-6.08-13.08-13.08V195.79c0-7.01,6.08-13.08,13.08-13.08h159.35c7.01,0,13.08,6.08,13.08,13.08v100.47
		C343.08,303.27,337,308.88,329.99,308.88z"/>
	<g>
		<path class="st4" d="M250.08,235.98c-5.61,0-9.81,4.67-9.81,9.81s4.67,9.81,9.81,9.81c5.61,0,9.81-4.67,9.81-9.81
			S255.69,235.98,250.08,235.98z"/>
		<path class="st4" d="M209.89,235.98c-5.61,0-9.81,4.67-9.81,9.81s4.67,9.81,9.81,9.81c5.61,0,9.81-4.67,9.81-9.81
			S215.5,235.98,209.89,235.98z"/>
		<path class="st4" d="M290.27,235.98c-5.61,0-9.81,4.67-9.81,9.81s4.67,9.81,9.81,9.81c5.61,0,9.81-4.67,9.81-9.81
			S295.88,235.98,290.27,235.98z"/>
	</g>
	<g>
		<path class="st2" d="M108.02,207.47H66.89c-12.62,0-22.9,10.28-22.9,22.9v91.59c0,12.62,10.28,22.9,22.9,22.9h41.12
			c8.88,0,15.89-7.01,15.89-15.89V222.9C123.44,214.48,116.43,207.47,108.02,207.47z"/>
		<path class="st2" d="M433.27,207.47h-41.12c-8.88,0-15.89,7.01-15.89,15.89v105.61c0,8.88,7.01,15.89,15.89,15.89h41.12
			c12.62,0,22.9-10.28,22.9-22.9V229.9C456.17,217.29,445.89,207.47,433.27,207.47z"/>
	</g>
</g>
</svg>
