<?xml version="1.0" encoding="utf-8"?>
<!-- Generator: Adobe Illustrator 26.3.1, SVG Export Plug-In . SVG Version: 6.00 Build 0)  -->
<svg version="1.1" id="Layer_1" xmlns="http://www.w3.org/2000/svg" xmlns:xlink="http://www.w3.org/1999/xlink" x="0px" y="0px"
	 viewBox="0 0 824.468 824.468" style="enable-background:new 0 0 824.468 824.468;" xml:space="preserve">
<style type="text/css">
	.st0{display:none;}
	.st1{fill:#D30F1E;}
	.st2{fill:#F87474;}
	.st3{fill:#0F4D8D;}
</style>
<g id="Layer_1_00000063592951332914942570000009405628671415934889_" class="st0">
	
		<image style="display:inline;overflow:visible;enable-background:new    ;" width="261" height="281" xlink:href="8620F740.jpg"  transform="matrix(2.5645 0 0 2.5645 77.5678 51.923)">
	</image>
</g>
<g id="Layer_2_00000158736122838337901340000011388728317404311694_">
</g>
<g id="Layer_3">
	<g>
		<circle class="st1" cx="153.305" cy="135.382" r="73.086"/>
		<path class="st2" d="M294.796,755.087H86.423c-8.471,0-15.339-6.868-15.339-15.339v-33.272c0-8.471,6.868-15.339,15.339-15.339
			h208.372c8.471,0,15.339,6.868,15.339,15.339v33.272C310.135,748.219,303.267,755.087,294.796,755.087z"/>
		<path class="st1" d="M424.267,761.67L424.267,761.67c-26.227,3.798-50.567-14.385-54.366-40.612l-21.86-150.965H191.129
			c-31.526,0-57.613-24.525-59.555-55.992l-2.469-39.991L118.192,297.26c-2.012-33.702,24.779-62.148,58.548-62.148
			c15.766,0,30.146,6.239,40.702,16.415c10.578,10.176,17.332,24.287,17.913,40.053l34.624,74.471h82.416
			c22.077,0,39.975,17.898,39.975,39.975l0,0c0,22.077-17.898,39.975-39.975,39.975H241.346l1.096,28.111h149.304
			c22.603,0,41.777,16.599,45.014,38.97l8.249,57.014l19.87,137.211C468.677,733.532,450.494,757.872,424.267,761.67z"/>
		<path class="st3" d="M329.167,615.578v36.974c0,13.349-10.821,24.171-24.171,24.171H70.397c-15.512,0-28.402-11.959-29.561-27.428
			l-4.34-57.889l-23.97-319.444c-0.842-11.225,7.574-21.008,18.799-21.851l41.2-3.095c11.226-0.844,21.011,7.574,21.853,18.8
			l24.438,325.591h186.18C318.346,591.406,329.167,602.229,329.167,615.578z"/>
		<g>
			<path class="st3" d="M791.95,559.693c-30.897,0-47.434-16.01-59.508-27.7c-10.569-10.232-16.948-16.41-31.613-16.41
				s-21.046,6.177-31.615,16.41c-12.074,11.689-28.611,27.7-59.508,27.7c-30.895,0-47.43-16.01-59.502-27.701
				c-10.567-10.232-16.946-16.407-31.607-16.407c-11.073,0-20.05-8.978-20.05-20.05s8.978-20.05,20.05-20.05
				c30.892,0,47.428,16.01,59.501,27.7c10.569,10.232,16.948,16.41,31.609,16.41c14.665,0,21.046-6.177,31.615-16.41
				c12.074-11.689,28.611-27.7,59.508-27.7c30.895,0,47.431,16.01,59.507,27.7c10.569,10.232,16.951,16.41,31.615,16.41
				c11.073,0,20.05,8.978,20.05,20.05C812,550.717,803.022,559.693,791.95,559.693z"/>
		</g>
		<g>
			<path class="st3" d="M791.95,427.95c-30.897,0-47.434-16.01-59.508-27.7c-10.569-10.233-16.948-16.41-31.613-16.41
				s-21.046,6.177-31.615,16.41c-12.074,11.69-28.611,27.7-59.508,27.7c-30.895,0-47.43-16.01-59.502-27.7
				c-10.567-10.232-16.946-16.409-31.607-16.409c-11.073,0-20.05-8.976-20.05-20.05c0-11.073,8.978-20.05,20.05-20.05
				c30.892,0,47.428,16.01,59.501,27.7c10.569,10.233,16.948,16.41,31.609,16.41c14.665,0,21.046-6.177,31.615-16.41
				c12.074-11.69,28.611-27.7,59.508-27.7c30.895,0,47.431,16.01,59.507,27.7c10.569,10.233,16.951,16.41,31.615,16.41
				c11.073,0,20.05,8.976,20.05,20.05S803.022,427.95,791.95,427.95z"/>
		</g>
		<g>
			<path class="st3" d="M791.95,296.205c-30.897,0-47.434-16.01-59.508-27.7c-10.569-10.233-16.948-16.41-31.613-16.41
				s-21.046,6.177-31.615,16.41c-12.074,11.69-28.611,27.7-59.508,27.7c-30.895,0-47.43-16.01-59.502-27.7
				c-10.567-10.232-16.946-16.409-31.607-16.409c-11.073,0-20.05-8.976-20.05-20.05s8.978-20.05,20.05-20.05
				c30.892,0,47.428,16.01,59.501,27.7c10.569,10.233,16.948,16.41,31.609,16.41c14.665,0,21.046-6.177,31.615-16.41
				c12.074-11.69,28.611-27.7,59.508-27.7c30.895,0,47.431,16.01,59.507,27.7c10.569,10.233,16.951,16.41,31.615,16.41
				c11.073,0,20.05,8.976,20.05,20.05S803.022,296.205,791.95,296.205z"/>
		</g>
	</g>
</g>
</svg>
