<?xml version="1.0" encoding="utf-8"?>
<!-- Generator: Adobe Illustrator 26.3.1, SVG Export Plug-In . SVG Version: 6.00 Build 0)  -->
<svg version="1.1" id="Layer_1" xmlns="http://www.w3.org/2000/svg" xmlns:xlink="http://www.w3.org/1999/xlink" x="0px" y="0px"
	 viewBox="0 0 500 500" style="enable-background:new 0 0 500 500;" xml:space="preserve">
<style type="text/css">
	.st0{fill:#26AAE1;}
	.st1{fill:#F87474;}
	.st2{fill:#D30F1E;}
</style>
<g>
	<path class="st0" d="M93.37,272.85H44.91c-4.5,0-8.13,3.65-8.13,8.13v52.49c0,4.49,3.63,8.13,8.13,8.13h48.46
		c4.49,0,8.13-3.65,8.13-8.13v-52.49C101.51,276.5,97.86,272.85,93.37,272.85z M85.24,325.32h-32.2v-36.21h32.2V325.32z"/>
	<path class="st0" d="M169.78,272.85h-48.46c-4.49,0-8.13,3.65-8.13,8.13v52.49c0,4.49,3.65,8.13,8.13,8.13h48.46
		c4.49,0,8.13-3.65,8.13-8.13v-52.49C177.91,276.5,174.27,272.85,169.78,272.85z M161.65,325.34h-32.2v-36.22h32.2V325.34z"/>
	<path class="st0" d="M246.18,272.85h-48.45c-4.5,0-8.15,3.65-8.15,8.13v52.49c0,4.49,3.65,8.13,8.15,8.13h48.45
		c4.5,0,8.13-3.65,8.13-8.13v-52.49C254.32,276.5,250.69,272.85,246.18,272.85z M238.05,325.34h-32.2v-36.22h32.2V325.34z"/>
	<path class="st0" d="M87.68,378.99c-9.28,0-16.85,7.55-16.85,16.85c0,9.29,7.57,16.86,16.85,16.86c9.29,0,16.86-7.57,16.86-16.86
		C104.54,386.54,96.97,378.99,87.68,378.99z M87.68,400.49c-2.56,0-4.65-2.09-4.65-4.66s2.09-4.65,4.65-4.65
		c2.57,0,4.66,2.08,4.66,4.65S90.25,400.49,87.68,400.49z M87.68,378.99c-9.28,0-16.85,7.55-16.85,16.85
		c0,9.29,7.57,16.86,16.85,16.86c9.29,0,16.86-7.57,16.86-16.86C104.54,386.54,96.97,378.99,87.68,378.99z M87.68,400.49
		c-2.56,0-4.65-2.09-4.65-4.66s2.09-4.65,4.65-4.65c2.57,0,4.66,2.08,4.66,4.65S90.25,400.49,87.68,400.49z M87.68,378.99
		c-9.28,0-16.85,7.55-16.85,16.85c0,9.29,7.57,16.86,16.85,16.86c9.29,0,16.86-7.57,16.86-16.86
		C104.54,386.54,96.97,378.99,87.68,378.99z M87.68,400.49c-2.56,0-4.65-2.09-4.65-4.66s2.09-4.65,4.65-4.65
		c2.57,0,4.66,2.08,4.66,4.65S90.25,400.49,87.68,400.49z M279.8,378.99c-9.29,0-16.85,7.55-16.85,16.85
		c0,9.29,7.55,16.86,16.85,16.86c9.29,0,16.86-7.57,16.86-16.86C296.67,386.54,289.1,378.99,279.8,378.99z M279.82,400.49
		c-2.57,0-4.66-2.09-4.66-4.66s2.09-4.65,4.66-4.65c2.56,0,4.65,2.08,4.65,4.65S282.38,400.49,279.82,400.49z M279.8,378.99
		c-9.29,0-16.85,7.55-16.85,16.85c0,9.29,7.55,16.86,16.85,16.86c9.29,0,16.86-7.57,16.86-16.86
		C296.67,386.54,289.1,378.99,279.8,378.99z M279.82,400.49c-2.57,0-4.66-2.09-4.66-4.66s2.09-4.65,4.66-4.65
		c2.56,0,4.65,2.08,4.65,4.65S282.38,400.49,279.82,400.49z M87.68,378.99c-9.28,0-16.85,7.55-16.85,16.85
		c0,9.29,7.57,16.86,16.85,16.86c9.29,0,16.86-7.57,16.86-16.86C104.54,386.54,96.97,378.99,87.68,378.99z M87.68,400.49
		c-2.56,0-4.65-2.09-4.65-4.66s2.09-4.65,4.65-4.65c2.57,0,4.66,2.08,4.66,4.65S90.25,400.49,87.68,400.49z M349.08,317.1
		l-24.04-51.83h-0.01c-5.34-11.52-16.03-18.68-27.88-18.68H38.81c-14.06,0-25.49,11.43-25.49,25.49v115.07
		c0,9.27,7.1,16.79,15.84,16.79h19.52c3.75,18.11,19.81,31.76,39.01,31.76s35.26-13.65,39.02-31.76l114.09,0.01
		c3.75,18.1,19.81,31.75,39.01,31.75c19.21,0,35.26-13.65,39.02-31.75h19.52c8.74,0,15.84-7.54,15.84-16.8v-46.59
		C354.21,332.44,352.43,324.32,349.08,317.1z M334.34,323.94c0.2,0.45,0.35,0.93,0.55,1.38h-52.62v-36.21h35.9L334.34,323.94z
		 M87.69,419.43c-13,0-23.59-10.59-23.59-23.6c0-13,10.59-23.59,23.59-23.59c13.01,0,23.59,10.59,23.59,23.59
		C111.28,408.84,100.71,419.43,87.69,419.43z M279.82,419.43c-13,0-23.59-10.59-23.59-23.6c0-13,10.59-23.59,23.59-23.59
		c13.01,0,23.59,10.59,23.59,23.59C303.4,408.84,292.83,419.43,279.82,419.43z M318.81,387.64c-3.8-18.05-19.82-31.66-38.99-31.66
		c-19.11,0-35.1,13.54-38.95,31.53l-114.28-0.2c-3.92-17.88-19.84-31.33-38.89-31.33c-19,0-34.87,13.38-38.83,31.2l-19.29-0.03
		V272.08c0-5.1,4.14-9.24,9.22-9.24h258.35c5.45,0,10.49,3.56,13.13,9.28l0.35,0.73h-36.48c-4.49,0-8.13,3.65-8.13,8.13v52.49
		c0,4.49,3.65,8.13,8.13,8.13h63.8l0.42,46.07L318.81,387.64z M279.8,378.99c-9.29,0-16.85,7.55-16.85,16.85
		c0,9.29,7.55,16.86,16.85,16.86c9.29,0,16.86-7.57,16.86-16.86C296.67,386.54,289.1,378.99,279.8,378.99z M279.82,400.49
		c-2.57,0-4.66-2.09-4.66-4.66s2.09-4.65,4.66-4.65c2.56,0,4.65,2.08,4.65,4.65S282.38,400.49,279.82,400.49z M87.68,378.99
		c-9.28,0-16.85,7.55-16.85,16.85c0,9.29,7.57,16.86,16.85,16.86c9.29,0,16.86-7.57,16.86-16.86
		C104.54,386.54,96.97,378.99,87.68,378.99z M87.68,400.49c-2.56,0-4.65-2.09-4.65-4.66s2.09-4.65,4.65-4.65
		c2.57,0,4.66,2.08,4.66,4.65S90.25,400.49,87.68,400.49z M87.68,378.99c-9.28,0-16.85,7.55-16.85,16.85
		c0,9.29,7.57,16.86,16.85,16.86c9.29,0,16.86-7.57,16.86-16.86C104.54,386.54,96.97,378.99,87.68,378.99z M87.68,400.49
		c-2.56,0-4.65-2.09-4.65-4.66s2.09-4.65,4.65-4.65c2.57,0,4.66,2.08,4.66,4.65S90.25,400.49,87.68,400.49z M87.68,378.99
		c-9.28,0-16.85,7.55-16.85,16.85c0,9.29,7.57,16.86,16.85,16.86c9.29,0,16.86-7.57,16.86-16.86
		C104.54,386.54,96.97,378.99,87.68,378.99z M87.68,400.49c-2.56,0-4.65-2.09-4.65-4.66s2.09-4.65,4.65-4.65
		c2.57,0,4.66,2.08,4.66,4.65S90.25,400.49,87.68,400.49z"/>
	<path class="st0" d="M87.68,378.99c-9.28,0-16.85,7.55-16.85,16.85c0,9.29,7.57,16.86,16.85,16.86c9.29,0,16.86-7.57,16.86-16.86
		C104.54,386.54,96.97,378.99,87.68,378.99z M87.68,400.49c-2.56,0-4.65-2.09-4.65-4.66s2.09-4.65,4.65-4.65
		c2.57,0,4.66,2.08,4.66,4.65S90.25,400.49,87.68,400.49z"/>
	<path class="st0" d="M279.8,378.99c-9.29,0-16.85,7.55-16.85,16.85c0,9.29,7.55,16.86,16.85,16.86c9.29,0,16.86-7.57,16.86-16.86
		C296.67,386.54,289.1,378.99,279.8,378.99z M279.82,400.49c-2.57,0-4.66-2.09-4.66-4.66s2.09-4.65,4.66-4.65
		c2.56,0,4.65,2.08,4.65,4.65S282.38,400.49,279.82,400.49z"/>
	<path class="st0" d="M93.37,272.85H44.91c-4.5,0-8.13,3.65-8.13,8.13v52.49c0,4.49,3.63,8.13,8.13,8.13h48.46
		c4.49,0,8.13-3.65,8.13-8.13v-52.49C101.51,276.5,97.86,272.85,93.37,272.85z M85.24,325.32h-32.2v-36.21h32.2V325.32z"/>
	<path class="st0" d="M169.78,272.85h-48.46c-4.49,0-8.13,3.65-8.13,8.13v52.49c0,4.49,3.65,8.13,8.13,8.13h48.46
		c4.49,0,8.13-3.65,8.13-8.13v-52.49C177.91,276.5,174.27,272.85,169.78,272.85z M161.65,325.34h-32.2v-36.22h32.2V325.34z"/>
	<path class="st0" d="M246.18,272.85h-48.45c-4.5,0-8.15,3.65-8.15,8.13v52.49c0,4.49,3.65,8.13,8.15,8.13h48.45
		c4.5,0,8.13-3.65,8.13-8.13v-52.49C254.32,276.5,250.69,272.85,246.18,272.85z M238.05,325.34h-32.2v-36.22h32.2V325.34z"/>
	<path class="st0" d="M246.18,272.85h-48.45c-4.5,0-8.15,3.65-8.15,8.13v52.49c0,4.49,3.65,8.13,8.15,8.13h48.45
		c4.5,0,8.13-3.65,8.13-8.13v-52.49C254.32,276.5,250.69,272.85,246.18,272.85z M238.05,325.34h-32.2v-36.22h32.2V325.34z"/>
	<path class="st0" d="M169.78,272.85h-48.46c-4.49,0-8.13,3.65-8.13,8.13v52.49c0,4.49,3.65,8.13,8.13,8.13h48.46
		c4.49,0,8.13-3.65,8.13-8.13v-52.49C177.91,276.5,174.27,272.85,169.78,272.85z M161.65,325.34h-32.2v-36.22h32.2V325.34z"/>
	<path class="st0" d="M93.37,272.85H44.91c-4.5,0-8.13,3.65-8.13,8.13v52.49c0,4.49,3.63,8.13,8.13,8.13h48.46
		c4.49,0,8.13-3.65,8.13-8.13v-52.49C101.51,276.5,97.86,272.85,93.37,272.85z M85.24,325.32h-32.2v-36.21h32.2V325.32z"/>
	<path class="st0" d="M279.8,378.99c-9.29,0-16.85,7.55-16.85,16.85c0,9.29,7.55,16.86,16.85,16.86c9.29,0,16.86-7.57,16.86-16.86
		C296.67,386.54,289.1,378.99,279.8,378.99z M279.82,400.49c-2.57,0-4.66-2.09-4.66-4.66s2.09-4.65,4.66-4.65
		c2.56,0,4.65,2.08,4.65,4.65S282.38,400.49,279.82,400.49z"/>
	<path class="st0" d="M87.68,378.99c-9.28,0-16.85,7.55-16.85,16.85c0,9.29,7.57,16.86,16.85,16.86c9.29,0,16.86-7.57,16.86-16.86
		C104.54,386.54,96.97,378.99,87.68,378.99z M87.68,400.49c-2.56,0-4.65-2.09-4.65-4.66s2.09-4.65,4.65-4.65
		c2.57,0,4.66,2.08,4.66,4.65S90.25,400.49,87.68,400.49z"/>
</g>
<g>
	<path class="st1" d="M402.28,404.43h-28.33c-5.52,0-10-4.48-10-10s4.48-10,10-10h28.33c23.63,0,42.86-19.23,42.86-42.86v-138.1
		c0-23.63-19.23-42.86-42.86-42.86H223.74c-5.52,0-10-4.48-10-10s4.48-10,10-10h178.54c34.66,0,62.86,28.2,62.86,62.86v138.09
		C465.14,376.23,436.94,404.43,402.28,404.43z"/>
</g>
<g>
	<g>
		<path class="st2" d="M118.77,168.31c-19.65,0-35.63-15.98-35.63-35.63s15.98-35.63,35.63-35.63s35.63,15.98,35.63,35.63
			S138.42,168.31,118.77,168.31z M118.77,111.88c-11.47,0-20.8,9.33-20.8,20.8s9.33,20.8,20.8,20.8s20.8-9.33,20.8-20.8
			S130.24,111.88,118.77,111.88z"/>
	</g>
	<g>
		<path class="st2" d="M119.47,227.63c-9.05,0-17.61-3.43-24.19-9.71c-5.4-5.15-10.43-10.76-14.95-16.68
			c-12.01-15.71-20.57-33.6-25.46-53.15c-7.45-29.79,6.15-60.48,33.08-74.63c9.48-4.98,20.14-7.62,30.83-7.62
			c7.11,0,14.12,1.13,20.85,3.37l0,0c32.64,10.84,51.47,45.68,42.89,79.31c-4.51,17.67-11.96,34.17-22.13,49.06
			c-4.62,6.76-9.83,13.2-15.49,19.15c-6.47,6.8-15.18,10.66-24.55,10.89C120.04,227.62,119.75,227.63,119.47,227.63z M118.77,80.67
			c-8.3,0-16.57,2.04-23.93,5.91c-20.85,10.96-31.38,34.77-25.59,57.9c4.4,17.58,12.09,33.65,22.86,47.75
			c4.05,5.3,8.56,10.33,13.4,14.95c3.92,3.74,9.05,5.72,14.46,5.6c5.4-0.13,10.43-2.36,14.16-6.28c5.11-5.38,9.82-11.2,14-17.3
			c9.19-13.45,15.93-28.37,20.01-44.35c6.67-26.13-7.91-53.17-33.19-61.57l0,0C129.73,81.55,124.29,80.67,118.77,80.67z"/>
	</g>
</g>
</svg>
