<svg id="Layer_1" data-name="Layer 1" xmlns="http://www.w3.org/2000/svg" viewBox="0 0 122.88 109.91"><defs><style>.cls-1{fill-rule:evenodd;}</style></defs><title>man-woman-toilet</title><path class="cls-1" d="M30.39,35.84v66.43a4.87,4.87,0,0,1-4.85,4.86h0a4.88,4.88,0,0,1-4.86-4.86V63.21H18.77v39.06a4.87,4.87,0,0,1-4.85,4.86h0a4.88,4.88,0,0,1-4.86-4.86V35.84H7.37V60.25a3.7,3.7,0,0,1-3.69,3.68h0A3.7,3.7,0,0,1,0,60.25V34c0-4.27,1.44-7.27,4.05-9.24,4.5-3.39,26.72-3.39,31.22,0,2.62,2,4.07,5,4.06,9.24V60.25a3.7,3.7,0,0,1-3.68,3.68h0A3.7,3.7,0,0,1,32,60.25V35.84ZM53.51,2.78a2.81,2.81,0,0,1,5.62,0V107.13a2.81,2.81,0,0,1-5.62,0V2.78ZM115,33c.06.15.11.3.16.46l7.59,27a3.77,3.77,0,1,1-7.27,2L108,35.81l-.11,0H106.3v1.69l10,39.74h-10v25a4.87,4.87,0,0,1-4.85,4.86h0a4.88,4.88,0,0,1-4.85-4.86v-25H94.68v25a4.88,4.88,0,0,1-4.86,4.86h0A4.87,4.87,0,0,1,85,102.27v-25H74.38L85,36.48v-.64h-1.7l-.14,0L75.64,62.46a3.77,3.77,0,1,1-7.27-2L75.8,34l-.08,0c1.14-4.25,2.09-7.27,4.71-9.24,4.5-3.39,26.24-3.39,30.75,0C113.6,26.56,114,29,115,33ZM95.57,2.78a8.78,8.78,0,1,1-8.78,8.78,8.78,8.78,0,0,1,8.78-8.78Zm-75.91,0a8.78,8.78,0,1,1-8.78,8.78,8.78,8.78,0,0,1,8.78-8.78Z"/></svg>