<?xml version="1.0" encoding="utf-8"?>
<!-- Generator: Adobe Illustrator 26.3.1, SVG Export Plug-In . SVG Version: 6.00 Build 0)  -->
<svg version="1.1" id="Layer_1" xmlns="http://www.w3.org/2000/svg" xmlns:xlink="http://www.w3.org/1999/xlink" x="0px" y="0px"
	 viewBox="0 0 500 500" style="enable-background:new 0 0 500 500;" xml:space="preserve">
<style type="text/css">
	.st0{fill:#F87474;}
	.st1{fill:#D30F1E;}
	.st2{fill:#0F4D8D;}
</style>
<g>
	<path d="M184.9,353.8c3.3,0,5.9,2.6,5.9,5.9c0.1,13.5,0,19.1,0,32.6c0,5.8-2.1,7.7-7.9,7.7c-5.4,0-10.7-0.7-16.1-1.5
		c-52.1-7.9-93.7-54-94.9-106.6c-0.8-36-0.2-72.1-0.2-108.1c0-4.4,2-6.4,6.5-6.8c3.1-0.3,6.3-0.2,9.4-0.7
		c34.9-5.8,58.4-33.4,59-68.9c0.1-5.7,1.8-7.6,7.6-7.6c9.6,0,19.2,0,28.8,0c6.1,0,7.9,1.9,7.9,8.1c0,17.9,0,35.8,0,53.6
		c0,1.1,0.1,2.1-0.1,3.1c-0.7,3-2.7,4.9-5.8,4.8c-3.2,0-5.1-1.9-5.7-5c-0.2-1.1-0.1-2.4-0.1-3.5c0-15.1-0.1-30.2,0.1-45.4
		c0-3.4-1-4.3-4.2-4.1c-3.9,0.3-7.9,0.3-11.8,0c-3.7-0.3-4.9,0.9-5.3,4.6c-3.9,38-32.7,67.4-70.6,72.1c-3.2,0.4-3.7,1.5-3.7,4.3
		c0.1,31.4-0.1,62.9,0.1,94.3c0.2,52.7,39.9,96,92.4,100.9c2.5,0.2,3.1-0.3,3.1-2.8c0-8.5-0.1-9-0.1-17.5c0-1.8,0-4.9,0-7.7
		C179,356.5,181.6,353.8,184.9,353.8L184.9,353.8z"/>
	<path class="st0" d="M184.9,353.8c3.3,0,5.9,2.6,5.9,5.9c0.1,13.5,0,19.1,0,32.6c0,5.8-2.1,7.7-7.9,7.7c-5.4,0-10.7-0.7-16.1-1.5
		c-52.1-7.9-93.7-54-94.9-106.6c-0.8-36-0.2-72.1-0.2-108.1c0-4.4,2-6.4,6.5-6.8c3.1-0.3,6.3-0.2,9.4-0.7
		c34.9-5.8,58.4-33.4,59-68.9c0.1-5.7,1.8-7.6,7.6-7.6c9.6,0,19.2,0,28.8,0c6.1,0,7.9,1.9,7.9,8.1c0,17.9,0,35.8,0,53.6
		c0,1.1,0.1,2.1-0.1,3.1c-0.7,3-2.7,4.9-5.8,4.8c-3.2,0-5.1-1.9-5.7-5c-0.2-1.1-0.1-2.4-0.1-3.5c0-15.1-0.1-30.2,0.1-45.4
		c0-3.4-1-4.3-4.2-4.1c-3.9,0.3-7.9,0.3-11.8,0c-3.7-0.3-4.9,0.9-5.3,4.6c-3.9,38-32.7,67.4-70.6,72.1c-3.2,0.4-3.7,1.5-3.7,4.3
		c0.1,31.4-0.1,62.9,0.1,94.3c0.2,52.7,39.9,96,92.4,100.9c2.5,0.2,3.1-0.3,3.1-2.8c0-8.5-0.1-9-0.1-17.5c0-1.8,0-4.9,0-7.7
		C179,356.5,181.6,353.8,184.9,353.8L184.9,353.8z"/>
	<path d="M194.3,341.4c0,0-0.3,0-0.8,0c0.1,0,0.3,0,0.4,0H194.3z"/>
	<path class="st1" d="M435.9,234.8c-1.8-0.6-0.9-1.7-0.5-2.8c7.1-17.7-3.9-34-23.1-34c-13.8,0-27.6-0.1-41.4,0.1
		c-3.3,0-4.1-0.8-4.1-4.1c0.1-22.2,0.2-44.4,0-66.6c-0.1-15.2-12.5-27.2-27.6-27.2c-15,0-27.3,12.1-27.6,27.2
		c-0.1,5.9-0.1,11.8,0,17.7c0,3.9-0.6,7.7-1.7,11.5c0,0,0,0,0,0c0,0.2-0.1,0.3-0.1,0.5c-0.3,0.9-0.6,1.6-1.1,2
		c-1.7,3.3-5.2,9.3-9.7,13.3c-0.7,0.9-1.6,1.4-2.5,1.9c-0.2,0.1-0.3,0.2-0.5,0.3c0,0-0.1,0-0.1,0.1c-0.1,0.1-0.2,0.1-0.2,0.2
		c-10.3,6.6-20.7,13-30.9,19.8c-5.1,3.3-10.6,3.5-16.3,3.4c-1.6,0-1.8-1.1-2.4-2.2c-3.5-7-9.2-10.5-17.1-10.5c-10.4,0-20.8,0-31.2,0
		c-7.5,0-13.3,3.1-16.7,9.8c-1,2-2.3,2.1-4.1,2.1c-8.3,0-16.6-0.1-24.9,0c-10.1,0-16.5,6.4-16.5,16.5c0,33.1,0,66.3,0,99.4
		c0,10.3,6.4,16.6,16.8,16.6c7.8,0,15.5,0.1,23.3,0c2.5,0,3.4,0.5,3.4,3.2c0,0.2,0,0.4,0,0.6c0,0.5,0,1.1,0,1.6v0.4
		c0,1.7,1.7,3.6,3.8,4.8c1.7,1,8.2,1.1,10.6,1.1c0.1,0,0.3,0,0.4,0h0.4c12.1,0.4,24.2,0.2,36.3,0.1c4.7,0,8.7-1.9,11.9-5.3
		c1.2-1.2,2.1-1.7,3.6-0.6c10.7,7.3,22.7,9.1,35.4,8.4c1.6-0.1,3.2-0.1,4.9-0.1h41.3v0c20.8,0,41.7-0.2,62.5,0.2
		c13.4,0.3,26.4-11.1,21-27.6c2.7-0.4,5.4-0.2,8.1-0.9c14.6-3.5,22.5-18.8,16.4-32.6c-1-2.2-1.1-3.2,1.5-4.2
		c8.1-3.2,12.5-9.7,14.8-17.8v-7.9C449.6,244.5,444.8,237.9,435.9,234.8z M425.6,269c-14.2,0-28.4,0-42.6,0c-3.6,0-6.2,1.2-6.9,5
		c-0.7,4,2,6.8,6.6,6.9c10,0.1,20,0,30,0c8,0,13.4,4.8,13.3,11.8c0,6.9-5.6,11.8-13.5,11.8c-9.7,0-19.5,0-29.2,0
		c-4.6,0-7.3,2.2-7.3,5.9c0,3.7,2.6,5.9,7.2,5.9c3,0,6.1-0.1,9.1,0c4.8,0.1,8.3,3.3,8.4,7.6c0.1,4.4-3.5,8-8.4,8.1
		c-8,0.1-16,0-24.1,0h-37.1c-18.8,0-37.6-0.2-56.4,0.1c-9.7,0.2-17.8-3.7-25.8-8.5c-1.5-0.9-1.3-2.1-1.3-3.4c0-3.4,0.1-6.8,0-10.3
		c-0.1-4-2.5-6.4-6-6.4c-3.5,0-5.7,2.5-5.8,6.5c-0.1,4.2,0,8.4,0,12.6c-0.1,4.6-2.2,6.9-6.7,6.9c-10.9,0.1-21.8,0.1-32.7,0
		c-4,0-5.5-1.5-5.5-5.5c0-40.1,0-80.2,0-120.3c0-4.6,2.3-6.7,6.9-6.7c10.3-0.1,20.5,0,30.8,0c5.3,0,7.3,2.1,7.3,7.5
		c0,24.7,0,49.4,0,74.2c0,1.3-0.1,2.7,0.1,3.9c0.6,3.1,2.7,4.9,5.8,5c3.1,0,5.2-1.8,5.8-4.9c0.3-1.3,0.1-2.6,0.1-3.9
		c0-21.8,0.1-43.7-0.1-65.5c0-2.9,0.7-3.9,3.7-3.7c7.9,0.6,14.9-1.9,21.5-6.2c9.4-6.2,19.1-12.1,28.6-18.2
		c14.7-9.4,22-22.8,22.1-40.2c0-5.4,0-10.8,0-16.2c0-9.9,6.7-17,15.9-16.9c9.1,0.1,15.6,7.1,15.7,17.1c0,22.7,0,45.5,0,68.2
		c0,8.9,3.5,12.5,12.4,12.5c15.2,0,30.5-0.1,45.8,0c9.3,0.1,15.3,8.3,12,16.2c-2.1,5-6.1,7.4-11.5,7.4c-10,0-20,0-30,0
		c-4.9,0-7.6,2.1-7.6,6c0,3.8,2.7,5.9,7.7,5.9c14.1,0,28.1,0,42.2,0c8.8,0,14.2,4.4,14.3,11.7C440.2,264.3,434.5,269,425.6,269z"/>
	<path class="st2" d="M178.8,411.5C116.8,409.2,65.9,359.6,60.4,298c-0.4-4.5-0.6-8.9-0.6-13.4c0-36.7,0-73.4-0.1-110.1
		c0-3.4,0.6-4.6,4.4-4.9c40.3-2.3,71.8-35.5,72.2-76c0.1-5.3,0.1-5.3,5.5-5.3c29.5,0,58.9,0.1,88.4-0.1c3.3,0,4.2,0.8,4.1,4.1
		c-0.9,30.5,15.4,55.6,37.9,68.9c2.8,1.7,6.4,0.6,8-2.2c0-0.1,0.1-0.2,0.1-0.3c1.5-2.7,0.5-6.1-2.2-7.7c-8.1-4.7-15-11.3-20.9-19.8
		c-9-12.9-11.8-27.5-11.2-43.1c0.3-7.9-3.7-11.7-11.5-11.7c-32.9,0-65.7,0-98.6,0c-7.6,0-11.4,3.9-11.4,11.4c0,5.8,0,11.6-1.2,17.3
		c-6.2,30.6-30.7,51.5-62.6,52.8c-6,0.3-10.5,1.8-12.8,7.7v131c1.5,7.3,2.1,14.7,3.8,22c12,51.8,56.5,93.8,108.9,102.7
		c55.7,9.5,108.5-13.5,138.8-59.1c2.6-3.9-0.3-9.2-5-9.2l0,0c-2,0-3.8,1-4.9,2.6C263.5,394.1,226.5,413.3,178.8,411.5z"/>
	<path d="M193.8,341.4c0.1,0,0.3,0,0.4,0C194.1,341.4,194,341.4,193.8,341.4z"/>
	<path d="M296.4,174.4c0,0-0.1,0.1-0.1,0.1c-0.1,0.1-0.3,0.2-0.4,0.2C296.1,174.6,296.3,174.5,296.4,174.4z"/>
</g>
</svg>
