<?xml version="1.0" encoding="utf-8"?>
<!-- Generator: Adobe Illustrator 26.3.1, SVG Export Plug-In . SVG Version: 6.00 Build 0)  -->
<svg version="1.1" xmlns="http://www.w3.org/2000/svg" xmlns:xlink="http://www.w3.org/1999/xlink" x="0px" y="0px"
	 viewBox="0 0 824.5 824.5" style="enable-background:new 0 0 824.5 824.5;" xml:space="preserve">
<style type="text/css">
	.st0{display:none;}
	.st1{fill:#D30F1E;}
	.st2{fill:#0F4D8D;}
</style>
<g id="Layer_1">
	<g id="Layer_1_00000063592951332914942570000009405628671415934889_" class="st0">
		
			<image style="display:inline;overflow:visible;enable-background:new    ;" width="261" height="281" xlink:href="8620F740.jpg"  transform="matrix(2.5645 0 0 2.5645 1123.355 51.923)">
		</image>
	</g>
	<g id="Layer_2_00000158736122838337901340000011388728317404311694_">
	</g>
</g>
<g id="Layer_2">
	<g>
		<g>
			<path class="st1" d="M475,785H349.5c-23.7,0-43-19.3-43-42.9v-44.2c-70.7-38.7-114.3-111.7-114.3-193c0-7.7,0.4-15.3,1.2-22.8
				l1.4-13.6h434.8l1.4,13.6c0.8,7.5,1.2,15.2,1.2,22.8c0,81.2-43.6,154.3-114.3,193v44.2C517.9,765.8,498.6,785,475,785z
				 M222.8,498.9c-0.1,2-0.1,4-0.1,6c0,72.7,40.5,137.9,105.8,170.1l8.5,4.2v62.9c0,6.9,5.6,12.5,12.5,12.5H475
				c6.9,0,12.5-5.6,12.5-12.5v-62.9l8.5-4.2c65.3-32.2,105.8-97.3,105.8-170.1c0-2,0-4-0.1-6H222.8z"/>
		</g>
		<g>
			<g>
				<g>
					<path class="st2" d="M627.9,336.3H190.5V212c0-46.5,37.9-84.4,84.4-84.4h268.6c46.5,0,84.4,37.9,84.4,84.4V336.3z M221,305.9
						h376.5V212c0-29.7-24.2-53.9-53.9-53.9H274.9c-29.7,0-53.9,24.2-53.9,53.9V305.9z"/>
				</g>
			</g>
			<g>
				<g>
					<path class="st2" d="M355.5,119.7h-50.8c-22.1,0-40.1-18-40.1-40.1c0-22.1,18-40.1,40.1-40.1h50.8c22.1,0,40.1,18,40.1,40.1
						C395.6,101.7,377.6,119.7,355.5,119.7z M304.7,69.9c-5.3,0-9.7,4.3-9.7,9.7s4.3,9.7,9.7,9.7h50.8c5.3,0,9.7-4.3,9.7-9.7
						s-4.3-9.7-9.7-9.7H304.7z"/>
				</g>
			</g>
			<g>
				<rect x="311.8" y="104.4" class="st2" width="36.5" height="41.9"/>
			</g>
		</g>
		<g>
			<path class="st1" d="M615.7,498.9H208.8c-38.4,0-69.7-31.2-69.7-69.7s31.2-69.7,69.7-69.7h406.9c38.4,0,69.7,31.2,69.7,69.7
				S654.1,498.9,615.7,498.9z M208.8,390c-21.6,0-39.2,17.6-39.2,39.2c0,21.6,17.6,39.2,39.2,39.2h406.9c21.6,0,39.2-17.6,39.2-39.2
				c0-21.6-17.6-39.2-39.2-39.2H208.8z"/>
		</g>
	</g>
</g>
</svg>
