<?xml version="1.0" encoding="utf-8"?>
<!-- Generator: Adobe Illustrator 26.3.1, SVG Export Plug-In . SVG Version: 6.00 Build 0)  -->
<svg version="1.1" id="Layer_1" xmlns="http://www.w3.org/2000/svg" xmlns:xlink="http://www.w3.org/1999/xlink" x="0px" y="0px"
	 viewBox="0 0 824.468 824.468" style="enable-background:new 0 0 824.468 824.468;" xml:space="preserve">
<style type="text/css">
	.st0{display:none;}
	.st1{fill:#0F4D8D;}
	.st2{fill:#F87474;}
	.st3{fill:#D30F1E;}
</style>
<g id="Layer_1_00000075864835110479718630000005568753104632135308_" class="st0">
</g>
<g id="Layer_2_00000026862262572598894230000008195827737646606237_">
</g>
<g id="Layer_3">
	<g>
		<g>
			<path class="st1" d="M412.231,127.1c-157.476,0-285.134,127.658-285.134,285.134c0,149.91,115.683,272.786,262.644,284.255
				c7.417,0.581,14.924,0.879,22.49,0.879c7.328,0,14.581-0.284,21.775-0.819v-35.969V556.32h27.629
				c12.079,0,21.88-9.801,21.88-21.895v-135.67H340.962v135.67c0,12.094,9.801,21.895,21.895,21.895h26.883v104.2
				C262.783,649.11,162.947,542.112,162.947,412.234c0-137.458,111.825-249.283,249.284-249.283
				c137.458,0,249.298,111.825,249.298,249.283c0,117.485-81.709,216.249-191.27,242.462v36.758
				c129.654-26.795,227.106-141.629,227.106-279.22C697.365,254.758,569.707,127.1,412.231,127.1z M382.74,531.804l26.258-52.263
				h-24.262l57.014-61.022l-24.5,49.017h28.254L382.74,531.804z"/>
			<path class="st2" d="M360.473,389.759h105.793V283.966H360.473V389.759z M424.623,325.237h23.265v23.25h-23.265V325.237z
				 M378.852,325.237h23.265v23.25h-23.265V325.237z"/>
		</g>
		<g>
			<path class="st3" d="M412.234,48.468c-200.906,0-363.766,162.86-363.766,363.766S211.328,776,412.234,776
				C613.138,776,776,613.14,776,412.234S613.14,48.468,412.234,48.468z M412.234,730.263c-175.37,0-318.029-142.659-318.029-318.029
				S236.864,94.205,412.234,94.205s318.045,142.659,318.045,318.029S587.604,730.263,412.234,730.263z"/>
		</g>
	</g>
</g>
</svg>
